<?xml version="1.0" encoding="UTF-8"?>
<svg id="Layer_5" xmlns="http://www.w3.org/2000/svg" version="1.1" viewBox="0 0 1190.55 841.89">
  <!-- Generator: Adobe Illustrator 29.2.1, SVG Export Plug-In . SVG Version: 2.1.0 Build 116)  -->
  <defs>
    <style>
      .st0, .st1, .st2, .st3, .st4, .st5, .st6, .st7 {
        stroke-miterlimit: 10;
      }

      .st0, .st2, .st3 {
        stroke: #81c341;
      }

      .st0, .st8, .st5, .st6 {
        fill: #fff;
      }

      .st9, .st7 {
        fill: #231f20;
      }

      .st1, .st10, .st3 {
        fill: #81c341;
      }

      .st1, .st5, .st7 {
        stroke: #231f20;
      }

      .st2 {
        fill: none;
      }

      .st2, .st4 {
        stroke-linecap: square;
      }

      .st4 {
        fill: #f1f2f2;
      }

      .st4, .st6 {
        stroke: #fff;
      }
    </style>
  </defs>
  <path class="st7" d="M272.69,267.26c0,50.95-41.3,92.25-92.25,92.25s-92.25-41.3-92.25-92.25c0-18.48,5.44-35.7,14.81-50.13l37.94-98.23,12.16,60.24c8.64-2.68,17.82-4.12,27.34-4.12,11.88,0,23.23,2.24,33.66,6.34l24.75-64.07,20.68,102.47c8.35,13.87,13.16,30.13,13.16,47.5Z"/>
  <polygon class="st5" points="165.29 250.26 150.14 231.95 180.44 231.95 165.29 250.26"/>
  <polygon class="st1" points="211.13 222.38 234.09 231.95 188.17 231.95 211.13 222.38"/>
  <polygon class="st1" points="136.83 221.38 159.79 230.95 113.87 230.95 136.83 221.38"/>
  <line class="st4" x1="165.53" y1="247.95" x2="165.53" y2="282.95"/>
  <polygon class="st7" points="225.3 355.71 219.02 407.79 165.74 381.96 186.66 377.47 167.41 368.13 225.3 355.71"/>
  <polygon class="st7" points="146.48 372.62 165.74 381.96 107.84 394.38 114.12 342.3 167.41 368.13 146.48 372.62"/>
  <g>
    <polygon class="st9" points="149.36 372.54 167.28 368.7 183.78 376.7 165.87 381.33 149.36 372.54"/>
    <path class="st10" d="M167.15,369.75l13.74,6.66-14.9,3.85-13.74-7.32,14.9-3.2M167.41,367.65l-20.93,4.49,19.26,10.26,20.92-5.41-19.26-9.34h0Z"/>
  </g>
  <polygon class="st7" points="126.5 225.85 128.84 230.36 130.64 224.35 126.5 225.85"/>
  <polygon class="st7" points="201.23 227.48 203.72 232.14 205.52 224.91 201.23 227.48"/>
  <g>
    <path class="st9" d="M351.39,223.45c14.58,0,24.64,4.43,24.64,16.48v2.32c0,6.3-3.1,10.1-8,12.8v2.7c6.67,2.68,10,7.52,10,14.32v2.78c0,10.3-7.85,17.61-25.91,17.61h-57.09v-69h56.36ZM313.03,251.45h35.16c5.84,0,9.84-2.04,9.84-6.63v-1.63c0-4.59-3.59-6.73-9.84-6.73h-35.16v15ZM313.03,279.45h35.87c7.49,0,11.13-2.45,11.13-7.24v-1.63c0-5.2-4.06-7.13-11.13-7.13h-35.87v16Z"/>
    <path class="st9" d="M605.73,239.46l-41.59,75.82c-9.34,12.17-15.7,19.14-49.83,13.66-24.85-3.99-51.69-18.58-75.81-19.21-4.83-.13-10.46,1.47-11.5,7.32-.37,2.11.33,4.05,2.13,5.27,1.86,1.25,7.53,3.06,8.7.06.2-.52.09-1.11.03-1.67-.1-.76-.34-1.61-.8-2.09-.93-.99-2.41-1.45-3.88-1,1.42-.9,3.15-.89,4.7.54,1.51,1.39,1.76,2.83,1.77,3.49.01.53,0,1.08-.17,1.58-.39,1.18-1.56,1.98-2.77,2.27-1.21.29-2.48.16-3.72.02-5.02-.53-8.12-3.6-8.05-8.81.1-7.84,4.63-12.27,9.25-13.42,4.63-1.15,9.49-.74,14.21-.09,15.88,2.19,61.65,17.33,77.68,17.33,12.08,0,16.8-1.55,25.09-11.06,9.52-11.73,5.29-23.85-1.23-34.21l-14.74-23.75h-34.32v18.92c0,6.17,3.27,10.08,10.01,10.08h3.07c6.75,0,9.92-3.91,9.92-10.08v-.92h15v.93c0,15.83-9.51,23.07-24.83,23.07h-3.07c-16.76,0-28.1-7.24-28.1-23.07v-18.93h-43.92v18.92c0,6.17,3.27,10.08,10.02,10.08h3.07c6.74,0,9.91-3.91,9.91-10.08v-.92h15v.93c0,15.83-9.5,23.07-24.83,23.07h-3.07c-16.76,0-28.1-7.24-28.1-23.07v-18.93h-18.35v40.95h-18v-53h18l8.48.02,9.87.03v-14h18v14h43.92v-14h18v14l45.96-.05,19.94,32h4.8l17.59-32h16.56Z"/>
    <path class="st9" d="M400.85,239.45h0s1.76.01,1.76.01h-1.76Z"/>
  </g>
  <path class="st9" d="M402.61,251.5"/>
  <path class="st10" d="M394.22,232.16c-5.49.41-10.54-2.02-10.61-7.72,0-1.4.37-2.67,1.03-3.76l3.76-8.38,1.95,4.63c.67-.14,2.3-.26,3.03-.26.63-.04,2.29.13,2.98.27l1.96-4.64,3.72,8.3c2.84,4.55.23,11.49-7.82,11.56Z"/>
  <g>
    <path class="st9" d="M822.2,363.18c11.03,0,18.64,3.35,18.64,12.47v1.75c0,4.77-2.35,7.64-6.05,9.68v2.04c5.04,2.03,7.57,5.69,7.57,10.83v2.1c0,7.79-5.94,13.33-19.61,13.33h-43.19v-52.21h42.64ZM793.18,384.36h26.6c4.42,0,7.45-1.54,7.45-5.02v-1.24c0-3.47-2.71-5.1-7.45-5.1h-26.6v11.35ZM793.18,405.55h27.14c5.66,0,8.42-1.85,8.42-5.47v-1.23c0-3.93-3.07-5.4-8.42-5.4h-27.14v12.11Z"/>
    <path class="st9" d="M1014.64,375.28l-31.47,57.37c-7.06,9.21-11.88,14.48-37.7,10.34-18.79-3.02-39.11-14.07-57.36-14.53-3.65-.1-7.91,1.11-8.7,5.54-.28,1.6.25,3.06,1.61,3.98,1.41.95,5.7,2.32,6.58.05.15-.39.07-.84.02-1.26-.08-.58-.26-1.22-.61-1.58-.7-.75-1.82-1.1-2.94-.76,1.07-.68,2.38-.67,3.56.41,1.14,1.05,1.33,2.13,1.34,2.64,0,.4,0,.81-.13,1.2-.3.89-1.18,1.5-2.1,1.72s-1.88.12-2.81.02c-3.79-.4-6.14-2.72-6.09-6.67.08-5.93,3.5-9.28,7-10.15,3.5-.87,7.18-.56,10.75-.07,12.01,1.66,46.64,13.11,58.77,13.11,9.14,0,12.71-1.17,18.99-8.37,7.2-8.88,4-18.05-.94-25.89l-11.15-17.96h-25.97v14.32c0,4.67,2.47,7.63,7.58,7.63h2.32c5.11,0,7.51-2.96,7.51-7.63v-.7h11.35v.7c0,11.98-7.2,17.45-18.79,17.45h-2.32c-12.68,0-21.26-5.48-21.26-17.45v-14.32h-33.23v14.32c0,4.67,2.47,7.63,7.58,7.63h2.32c5.1,0,7.5-2.96,7.5-7.63v-.7h11.35v.7c0,11.98-7.19,17.45-18.79,17.45h-2.32c-12.68,0-21.26-5.48-21.26-17.45v-14.32h-13.88v30.98h-13.62v-40.1h13.62l13.88.04v-10.59h13.62v10.59h33.23v-10.59h13.62v10.59l34.77-.04,15.09,24.21h3.63l13.31-24.21h12.53Z"/>
  </g>
  <path class="st10" d="M854.61,369.77c-4.15.31-7.97-1.53-8.03-5.84,0-1.06.28-2.02.78-2.84l2.84-6.34,1.48,3.5c.51-.11,1.74-.2,2.29-.2.48-.03,1.73.1,2.25.2l1.48-3.51,2.81,6.28c2.15,3.44.17,8.69-5.92,8.75Z"/>
  <g>
    <path class="st9" d="M822.38,268.35c11,0,18.6,3.34,18.6,12.44v1.75c0,4.76-2.34,7.62-6.04,9.66v2.03c5.03,2.02,7.55,5.68,7.55,10.81v2.1c0,7.77-5.93,13.29-19.56,13.29h-43.09v-52.08h42.54ZM793.42,289.48h26.54c4.41,0,7.43-1.54,7.43-5.01v-1.23c0-3.47-2.71-5.08-7.43-5.08h-26.54v11.32ZM793.42,310.62h27.08c5.65,0,8.4-1.85,8.4-5.46v-1.23c0-3.92-3.06-5.38-8.4-5.38h-27.08v12.08Z"/>
    <path class="st9" d="M1014.36,280.42l-31.39,57.23c-7.04,9.19-11.85,14.46-37.61,10.31-18.75-3.01-39.02-14.03-57.23-14.5-3.65-.09-7.9,1.12-8.68,5.53-.28,1.6.25,3.06,1.61,3.98,1.4.95,5.68,2.31,6.57.05.15-.4.07-.84.02-1.26-.08-.57-.26-1.22-.6-1.58-.7-.75-1.82-1.1-2.93-.76,1.07-.68,2.38-.66,3.55.42,1.14,1.04,1.33,2.13,1.34,2.63,0,.4,0,.81-.13,1.19-.29.9-1.18,1.49-2.09,1.71-.91.22-1.87.12-2.81.02-3.78-.41-6.13-2.72-6.08-6.66.08-5.92,3.49-9.26,6.98-10.13,3.49-.87,7.16-.55,10.73-.06,11.99,1.65,46.54,13.07,58.64,13.07,9.12,0,12.68-1.16,18.95-8.35,7.18-8.85,3.99-18-.94-25.82l-11.13-17.93h-25.91v14.29c0,4.66,2.47,7.6,7.56,7.6h2.31c5.1,0,7.49-2.94,7.49-7.6v-.7h11.32v.7c0,11.95-7.18,17.41-18.74,17.41h-2.32c-12.65,0-21.21-5.47-21.21-17.41v-14.29h-33.15v14.29c0,4.66,2.47,7.6,7.56,7.6h2.32c5.09,0,7.48-2.94,7.48-7.6v-.7h11.32v.7c0,11.95-7.17,17.41-18.74,17.41h-2.32c-12.65,0-21.21-5.47-21.21-17.41v-14.29h-13.85v30.91h-13.59v-40.01h13.59l13.85.04v-10.57h13.59v10.57h33.15v-10.57h13.59v10.57l34.69-.04,15.05,24.16h3.62l13.28-24.16h12.5Z"/>
    <path class="st9" d="M854.71,274.92c-4.14.31-7.96-1.52-8.01-5.83,0-1.06.28-2.02.78-2.84l2.84-6.33,1.47,3.49c.51-.11,1.74-.19,2.29-.19.47-.03,1.73.1,2.25.2l1.48-3.5,2.81,6.27c2.14,3.43.17,8.67-5.9,8.73Z"/>
  </g>
  <g>
    <path class="st7" d="M283.76,629.66c0,50.95-41.3,92.25-92.25,92.25s-92.25-41.3-92.25-92.25c0-18.48,5.44-35.7,14.81-50.13l37.94-98.23,12.16,60.24c8.64-2.68,17.82-4.12,27.34-4.12,11.88,0,23.23,2.24,33.66,6.34l24.75-64.07,20.68,102.47c8.35,13.87,13.16,30.13,13.16,47.5Z"/>
    <polygon class="st5" points="176.36 612.66 161.21 594.35 191.51 594.35 176.36 612.66"/>
    <polygon class="st5" points="222.2 584.78 245.16 594.35 199.24 594.35 222.2 584.78"/>
    <polygon class="st5" points="147.9 583.78 170.86 593.35 124.95 593.35 147.9 583.78"/>
    <line class="st4" x1="176.6" y1="610.35" x2="176.6" y2="645.35"/>
    <polygon class="st7" points="236.37 718.11 230.09 770.19 176.81 744.36 197.74 739.87 178.48 730.53 236.37 718.11"/>
    <polygon class="st7" points="157.55 735.02 176.81 744.36 118.91 756.78 125.2 704.7 178.48 730.53 157.55 735.02"/>
    <polygon class="st7" points="137.57 588.25 139.92 592.76 141.71 586.75 137.57 588.25"/>
    <g>
      <polygon class="st9" points="160.39 735.37 178.35 731.02 194.9 739.53 176.94 743.92 160.39 735.37"/>
      <path class="st8" d="M178.23,732.08l13.83,7.12-15,3.66-13.84-7.16,15-3.63M178.48,729.96l-20.93,5.07,19.26,9.96,20.92-5.11-19.26-9.91h0Z"/>
    </g>
    <polygon class="st7" points="212.3 589.88 214.79 594.54 216.59 587.31 212.3 589.88"/>
    <g>
      <path class="st9" d="M362.47,585.85c14.58,0,24.64,4.43,24.64,16.48v2.32c0,6.3-3.1,10.1-8,12.8v2.7c6.67,2.68,10,7.52,10,14.32v2.78c0,10.3-7.85,17.61-25.91,17.61h-57.09v-69h56.36ZM324.1,613.85h35.16c5.84,0,9.84-2.04,9.84-6.63v-1.63c0-4.59-3.59-6.73-9.84-6.73h-35.16v15ZM324.1,641.85h35.87c7.49,0,11.13-2.45,11.13-7.24v-1.63c0-5.2-4.06-7.13-11.13-7.13h-35.87v16Z"/>
      <path class="st9" d="M616.8,601.86l-41.59,75.82c-9.34,12.17-15.7,19.14-49.83,13.66-24.85-3.99-51.69-18.58-75.81-19.21-4.83-.13-10.46,1.47-11.5,7.32-.37,2.11.33,4.05,2.13,5.27,1.86,1.25,7.53,3.06,8.7.06.2-.52.09-1.11.03-1.67-.1-.76-.34-1.61-.8-2.09-.93-.99-2.41-1.45-3.88-1,1.42-.9,3.15-.89,4.7.54,1.51,1.39,1.76,2.83,1.77,3.49.01.53,0,1.08-.17,1.58-.39,1.18-1.56,1.98-2.77,2.27-1.21.29-2.48.16-3.72.02-5.02-.53-8.12-3.6-8.05-8.81.1-7.84,4.63-12.27,9.25-13.42,4.63-1.15,9.49-.74,14.21-.09,15.88,2.19,61.65,17.33,77.68,17.33,12.08,0,16.8-1.55,25.09-11.06,9.52-11.73,5.29-23.85-1.23-34.21l-14.74-23.75h-34.32v18.92c0,6.17,3.27,10.08,10.01,10.08h3.07c6.75,0,9.92-3.91,9.92-10.08v-.92h15v.93c0,15.83-9.51,23.07-24.83,23.07h-3.07c-16.76,0-28.1-7.24-28.1-23.07v-18.93h-43.92v18.92c0,6.17,3.27,10.08,10.02,10.08h3.07c6.74,0,9.91-3.91,9.91-10.08v-.92h15v.93c0,15.83-9.5,23.07-24.83,23.07h-3.07c-16.76,0-28.1-7.24-28.1-23.07v-18.93h-18.35v40.95h-18v-53h18l8.48.02,9.87.03v-14h18v14h43.92v-14h18v14l45.96-.05,19.94,32h4.8l17.59-32h16.56Z"/>
      <path class="st9" d="M411.92,601.85h0s1.76.01,1.76.01h-1.76Z"/>
    </g>
    <path class="st9" d="M413.69,613.91"/>
    <path class="st9" d="M405.3,594.56c-5.49.41-10.54-2.02-10.61-7.72,0-1.4.37-2.67,1.03-3.76l3.76-8.38,1.95,4.63c.67-.14,2.3-.26,3.03-.26.63-.04,2.29.13,2.98.27l1.96-4.64,3.72,8.3c2.84,4.55.23,11.49-7.82,11.56Z"/>
  </g>
  <rect class="st10" x="779.56" y="491.72" width="235.08" height="277.06"/>
  <path class="st8" d="M976.94,636.52c0,44.1-35.75,79.84-79.84,79.84s-79.84-35.74-79.84-79.84c0-15.99,4.71-30.9,12.82-43.39l32.84-85.02,10.52,52.14c7.48-2.32,15.42-3.57,23.66-3.57,10.28,0,20.11,1.94,29.13,5.49l21.42-55.45,17.9,88.69c7.23,12,11.39,26.08,11.39,41.11Z"/>
  <polygon class="st3" points="884.2 623.86 871.09 608.02 897.31 608.02 884.2 623.86"/>
  <polygon class="st10" points="923.66 597.68 943.53 605.97 903.79 605.97 923.66 597.68"/>
  <polygon class="st10" points="859.36 596.82 879.23 605.11 839.49 605.11 859.36 596.82"/>
  <line class="st2" x1="884.2" y1="623.66" x2="884.2" y2="650.9"/>
  <polygon class="st0" points="935.93 713.08 930.49 758.16 884.38 735.8 902.49 731.91 885.82 723.83 935.93 713.08"/>
  <polygon class="st0" points="867.71 727.72 884.38 735.8 834.27 746.55 839.7 701.48 885.82 723.83 867.71 727.72"/>
  <polygon class="st6" points="850.42 600.69 852.44 604.59 854 599.39 850.42 600.69"/>
  <g>
    <polygon class="st8" points="870.76 728.09 885.69 724.88 899.44 731.55 884.5 734.75 870.76 728.09"/>
    <path class="st10" d="M885.57,725.93l10.82,5.24-11.75,2.52-10.82-5.24,11.76-2.52M885.82,723.83l-18.11,3.89,16.67,8.08,18.11-3.89-16.67-8.08h0Z"/>
  </g>
  <polygon class="st6" points="914.19 601.06 917.25 606.13 918.93 599.37 914.19 601.06"/>
  <rect class="st10" x="778.56" y="74.48" width="237.08" height="139.8"/>
  <path class="st8" d="M779.03,62.74c-3.1.23-5.96-1.14-6-4.36,0-.79.21-1.51.58-2.13l2.13-4.74,1.1,2.62c.38-.08,1.3-.15,1.71-.15.35-.02,1.29.07,1.68.15l1.11-2.62,2.1,4.69c1.61,2.57.13,6.5-4.42,6.54Z"/>
  <g>
    <path class="st8" d="M840.84,122.01c8.8,0,14.86,2.67,14.86,9.94v1.4c0,3.8-1.87,6.09-4.83,7.72v1.63c4.02,1.62,6.03,4.54,6.03,8.64v1.68c0,6.21-4.74,10.63-15.63,10.63h-34.44v-41.63h34ZM817.69,138.9h21.21c3.52,0,5.94-1.23,5.94-4v-.98c0-2.77-2.16-4.06-5.94-4.06h-21.21v9.05ZM817.69,155.79h21.64c4.52,0,6.71-1.48,6.71-4.37v-.98c0-3.14-2.45-4.3-6.71-4.3h-21.64v9.65Z"/>
    <path class="st8" d="M994.28,131.66l-25.09,45.74c-5.63,7.34-9.47,11.55-30.06,8.24-14.99-2.41-31.19-11.21-45.74-11.59-2.91-.07-6.31.89-6.94,4.42-.22,1.28.2,2.44,1.29,3.18,1.12.76,4.54,1.85,5.25.04.12-.32.05-.67.02-1.01-.06-.46-.21-.97-.48-1.26-.56-.6-1.45-.88-2.34-.61.86-.54,1.9-.53,2.84.33.91.83,1.06,1.7,1.07,2.11,0,.32,0,.65-.1.95-.24.72-.94,1.19-1.67,1.37-.73.17-1.5.1-2.24.02-3.02-.33-4.9-2.17-4.86-5.32.06-4.73,2.79-7.4,5.58-8.1,2.79-.69,5.73-.44,8.57-.05,9.58,1.32,37.19,10.45,46.87,10.45,7.29,0,10.14-.93,15.14-6.67,5.74-7.08,3.19-14.39-.75-20.64l-8.89-14.33h-20.71v11.42c0,3.72,1.97,6.08,6.05,6.08h1.85c4.07,0,5.98-2.35,5.98-6.08v-.56h9.05v.56c0,9.55-5.74,13.92-14.98,13.92h-1.85c-10.11,0-16.95-4.37-16.95-13.92v-11.42h-26.5v11.42c0,3.72,1.97,6.08,6.05,6.08h1.85c4.07,0,5.98-2.35,5.98-6.08v-.56h9.05v.56c0,9.55-5.73,13.92-14.98,13.92h-1.85c-10.11,0-16.95-4.37-16.95-13.92v-11.42h-11.07v24.71h-10.86v-31.98h10.86l11.07.03v-8.45h10.86v8.45h26.5v-8.45h10.86v8.45h16.21l-.02-.03h11.54l12.03,19.31h2.9l10.61-19.31h9.99Z"/>
    <path class="st8" d="M866.68,127.26c-3.31.25-6.36-1.22-6.4-4.66,0-.84.22-1.61.62-2.27l2.27-5.06,1.18,2.79c.4-.08,1.39-.16,1.83-.16.38-.03,1.38.08,1.8.16l1.18-2.8,2.24,5.01c1.71,2.75.14,6.93-4.72,6.97Z"/>
  </g>
</svg>