<?xml version="1.0" encoding="UTF-8"?>
<svg id="Layer_5" xmlns="http://www.w3.org/2000/svg" version="1.1" viewBox="0 0 1190.55 841.89">
  <!-- Generator: Adobe Illustrator 29.2.1, SVG Export Plug-In . SVG Version: 2.1.0 Build 116)  -->
  <defs>
    <style>
      .st0, .st1 {
        fill: #231f20;
      }

      .st2, .st1, .st3, .st4, .st5, .st6, .st7 {
        stroke-miterlimit: 10;
      }

      .st2, .st3, .st6 {
        stroke: #2e2f8e;
      }

      .st2, .st8, .st4, .st5 {
        fill: #fff;
      }

      .st1, .st4 {
        stroke: #231f20;
      }

      .st3, .st7 {
        fill: none;
        stroke-linecap: square;
      }

      .st9, .st6 {
        fill: #2e2f8e;
      }

      .st5, .st7 {
        stroke: #fff;
      }
    </style>
  </defs>
  <path class="st1" d="M322.61,214.21c0,59.68-48.38,108.07-108.07,108.07s-108.07-48.38-108.07-108.07c0-21.65,6.37-41.82,17.35-58.72l44.44-115.07,14.24,70.57c10.12-3.14,20.88-4.83,32.03-4.83,13.92,0,27.21,2.62,39.43,7.43l28.99-75.05,24.23,120.04c9.78,16.25,15.42,35.3,15.42,55.64Z"/>
  <polygon class="st4" points="196.79 194.29 179.05 172.85 214.54 172.85 196.79 194.29"/>
  <polygon class="st4" points="250.49 161.64 277.39 172.85 223.6 172.85 250.49 161.64"/>
  <polygon class="st4" points="163.45 160.46 190.35 171.67 136.56 171.67 163.45 160.46"/>
  <line class="st7" x1="197.07" y1="191.59" x2="197.07" y2="232.59"/>
  <polygon class="st1" points="267.09 317.82 259.73 378.83 197.32 348.57 221.83 343.31 199.28 332.37 267.09 317.82"/>
  <polygon class="st1" points="174.76 337.63 197.32 348.57 129.49 363.12 136.85 302.11 199.28 332.37 174.76 337.63"/>
  <g>
    <polygon class="st0" points="178.13 337.54 199.12 333.04 218.45 342.41 197.47 347.84 178.13 337.54"/>
    <path class="st9" d="M198.97,334.27l16.1,7.8-17.45,4.51-16.1-8.57,17.45-3.75M199.28,331.81l-24.52,5.26,22.56,12.02,24.51-6.34-22.56-10.94h.01Z"/>
  </g>
  <polygon class="st1" points="151.35 165.7 154.09 170.98 156.2 163.94 151.35 165.7"/>
  <polygon class="st1" points="238.89 167.61 241.81 173.07 243.92 164.6 238.89 167.61"/>
  <g>
    <path class="st0" d="M414.8,162.89c17.08,0,28.86,5.19,28.86,19.31v2.72c0,7.38-3.63,11.83-9.37,14.99v3.16c7.81,3.14,11.71,8.81,11.71,16.78v3.26c0,12.07-9.2,20.63-30.35,20.63h-66.88v-80.83h66.02ZM369.86,195.69h41.19c6.84,0,11.53-2.39,11.53-7.77v-1.91c0-5.38-4.21-7.88-11.53-7.88h-41.19v17.57h0ZM369.86,228.49h42.02c8.77,0,13.04-2.87,13.04-8.48v-1.91c0-6.09-4.76-8.35-13.04-8.35h-42.02v18.74Z"/>
    <path class="st0" d="M712.74,181.64l-48.72,88.82c-10.94,14.26-18.39,22.42-58.37,16-29.11-4.67-60.55-21.77-88.81-22.5-5.66-.15-12.25,1.72-13.47,8.57-.43,2.47.39,4.74,2.5,6.17,2.18,1.46,8.82,3.58,10.19.07.23-.61.11-1.3.04-1.96-.12-.89-.4-1.89-.94-2.45-1.09-1.16-2.82-1.7-4.55-1.17,1.66-1.05,3.69-1.04,5.51.63,1.77,1.63,2.06,3.32,2.07,4.09.01.62,0,1.27-.2,1.85-.46,1.38-1.83,2.32-3.24,2.66-1.42.34-2.91.19-4.36.02-5.88-.62-9.51-4.22-9.43-10.32.12-9.18,5.42-14.37,10.84-15.72,5.42-1.35,11.12-.87,16.65-.11,18.6,2.57,72.22,20.3,91,20.3,14.15,0,19.68-1.82,29.39-12.96,11.15-13.74,6.2-27.94-1.44-40.07l-17.27-27.82h-40.2v22.16c0,7.23,3.83,11.81,11.73,11.81h3.6c7.91,0,11.62-4.58,11.62-11.81v-1.08h17.57v1.09c0,18.54-11.14,27.03-29.09,27.03h-3.6c-19.63,0-32.92-8.48-32.92-27.03v-22.18h-51.45v22.16c0,7.23,3.83,11.81,11.74,11.81h3.6c7.9,0,11.61-4.58,11.61-11.81v-1.08h17.57v1.09c0,18.54-11.13,27.03-29.09,27.03h-3.6c-19.63,0-32.92-8.48-32.92-27.03v-22.18h-21.5v47.97h-21.09v-62.09h21.09l9.93.02,11.56.04v-16.4h21.09v16.4h51.45v-16.4h21.09v16.4l53.84-.06,23.36,37.49h5.62l20.61-37.49h19.4Z"/>
    <path class="st0" d="M472.74,181.63h2.06s-2.06.01-2.06.01h0Z"/>
  </g>
  <path class="st0" d="M474.8,195.75"/>
  <path class="st9" d="M464.97,173.09c-6.43.48-12.35-2.37-12.43-9.04,0-1.64.43-3.13,1.21-4.4l4.4-9.82,2.28,5.42c.78-.16,2.69-.3,3.55-.3.74-.05,2.68.15,3.49.32l2.3-5.44,4.36,9.72c3.33,5.33.27,13.46-9.16,13.54h0Z"/>
  <g>
    <path class="st0" d="M915.85,352.47c12.92,0,21.84,3.92,21.84,14.61v2.05c0,5.59-2.75,8.95-7.09,11.34v2.39c5.9,2.38,8.87,6.67,8.87,12.69v2.46c0,9.13-6.96,15.62-22.97,15.62h-50.59v-61.16h49.95,0ZM881.86,377.29h31.16c5.18,0,8.73-1.8,8.73-5.88v-1.45c0-4.06-3.17-5.97-8.73-5.97h-31.16v13.3h0ZM881.86,402.11h31.79c6.63,0,9.86-2.17,9.86-6.41v-1.44c0-4.6-3.6-6.33-9.86-6.33h-31.79v14.19h0Z"/>
    <path class="st0" d="M1141.28,366.65l-36.87,67.21c-8.27,10.79-13.92,16.96-44.16,12.11-22.01-3.54-45.81-16.48-67.19-17.02-4.28-.12-9.27,1.3-10.19,6.49-.33,1.87.29,3.58,1.89,4.66,1.65,1.11,6.68,2.72,7.71.06.18-.46.08-.98.02-1.48-.09-.68-.3-1.43-.71-1.85-.82-.88-2.13-1.29-3.44-.89,1.25-.8,2.79-.78,4.17.48,1.34,1.23,1.56,2.5,1.57,3.09,0,.47,0,.95-.15,1.41-.35,1.04-1.38,1.76-2.46,2.01s-2.2.14-3.29.02c-4.44-.47-7.19-3.19-7.13-7.81.09-6.95,4.1-10.87,8.2-11.89s8.41-.66,12.59-.08c14.07,1.94,54.64,15.36,68.85,15.36,10.71,0,14.89-1.37,22.25-9.8,8.43-10.4,4.69-21.14-1.1-30.33l-13.06-21.04h-30.42v16.78c0,5.47,2.89,8.94,8.88,8.94h2.72c5.99,0,8.8-3.47,8.8-8.94v-.82h13.3v.82c0,14.03-8.43,20.44-22.01,20.44h-2.72c-14.85,0-24.9-6.42-24.9-20.44v-16.78h-38.93v16.78c0,5.47,2.89,8.94,8.88,8.94h2.72c5.97,0,8.79-3.47,8.79-8.94v-.82h13.3v.82c0,14.03-8.42,20.44-22.01,20.44h-2.72c-14.85,0-24.9-6.42-24.9-20.44v-16.78h-16.26v36.29h-15.95v-46.97h15.95l16.26.05v-12.41h15.95v12.41h38.93v-12.41h15.95v12.41l40.73-.05,17.68,28.36h4.25l15.59-28.36h14.68v-.02Z"/>
  </g>
  <path class="st9" d="M953.82,360.19c-4.86.36-9.34-1.79-9.41-6.84,0-1.24.33-2.37.91-3.33l3.33-7.43,1.73,4.1c.6-.13,2.04-.23,2.68-.23.56-.04,2.03.12,2.64.23l1.73-4.11,3.29,7.36c2.52,4.03.2,10.18-6.93,10.25h.02Z"/>
  <g>
    <path class="st0" d="M916.06,241.39c12.89,0,21.79,3.91,21.79,14.57v2.05c0,5.58-2.74,8.93-7.08,11.32v2.38c5.89,2.37,8.84,6.65,8.84,12.66v2.46c0,9.1-6.95,15.57-22.91,15.57h-50.48v-61.01h49.83ZM882.14,266.14h31.09c5.17,0,8.7-1.8,8.7-5.87v-1.44c0-4.06-3.17-5.95-8.7-5.95h-31.09v13.26ZM882.14,290.9h31.72c6.62,0,9.84-2.17,9.84-6.4v-1.44c0-4.59-3.58-6.3-9.84-6.3h-31.72v14.15h0Z"/>
    <path class="st0" d="M1140.96,255.53l-36.77,67.04c-8.25,10.77-13.88,16.94-44.06,12.08-21.96-3.53-45.71-16.44-67.04-16.99-4.28-.11-9.25,1.31-10.17,6.48-.33,1.87.29,3.58,1.89,4.66,1.64,1.11,6.65,2.71,7.7.06.18-.47.08-.98.02-1.48-.09-.67-.3-1.43-.7-1.85-.82-.88-2.13-1.29-3.43-.89,1.25-.8,2.79-.77,4.16.49,1.34,1.22,1.56,2.5,1.57,3.08,0,.47,0,.95-.15,1.39-.34,1.05-1.38,1.75-2.45,2-1.07.26-2.19.14-3.29.02-4.43-.48-7.18-3.19-7.12-7.8.09-6.93,4.09-10.85,8.18-11.87s8.39-.64,12.57-.07c14.05,1.93,54.52,15.31,68.69,15.31,10.68,0,14.85-1.36,22.2-9.78,8.41-10.37,4.67-21.09-1.1-30.25l-13.04-21h-30.35v16.74c0,5.46,2.89,8.9,8.86,8.9h2.71c5.97,0,8.77-3.44,8.77-8.9v-.82h13.26v.82c0,14-8.41,20.39-21.95,20.39h-2.72c-14.82,0-24.85-6.41-24.85-20.39v-16.74h-38.83v16.74c0,5.46,2.89,8.9,8.86,8.9h2.72c5.96,0,8.76-3.44,8.76-8.9v-.82h13.26v.82c0,14-8.4,20.39-21.95,20.39h-2.72c-14.82,0-24.85-6.41-24.85-20.39v-16.74h-16.22v36.21h-15.92v-46.87h15.92l16.22.05v-12.38h15.92v12.38h38.83v-12.38h15.92v12.38l40.64-.05,17.63,28.3h4.24l15.56-28.3h14.64,0Z"/>
    <path class="st0" d="M953.94,249.08c-4.85.36-9.32-1.78-9.38-6.83,0-1.24.33-2.37.91-3.33l3.33-7.42,1.72,4.09c.6-.13,2.04-.22,2.68-.22.55-.04,2.03.12,2.64.23l1.73-4.1,3.29,7.34c2.51,4.02.2,10.16-6.91,10.23h-.01Z"/>
  </g>
  <polygon class="st1" points="164.32 590.23 169.17 588.47 167.07 595.51 164.32 590.23"/>
  <path class="st1" d="M320.16,583.1l-24.23-120.04-28.99,75.05c-12.22-4.8-25.51-7.43-39.43-7.43-11.15,0-21.91,1.69-32.03,4.83l-14.24-70.57-44.44,115.07c-10.98,16.9-17.35,37.08-17.35,58.72,0,59.68,48.38,108.07,108.07,108.07s108.07-48.38,108.07-108.07c0-20.35-5.63-39.4-15.42-55.64h0ZM149.54,596.2l26.88-11.21,26.9,11.21h-53.78,0ZM254.84,597.38l2.05-8.25-5.03,3.01,2.8,5.24h-18.1l26.9-11.21,26.9,11.21h-35.52Z"/>
  <polygon class="st4" points="209.76 618.82 192.01 597.38 227.51 597.38 209.76 618.82"/>
  <polygon class="st4" points="256.89 589.13 254.84 597.38 254.66 597.38 251.86 592.14 256.89 589.13"/>
  <polygon class="st4" points="169.17 588.47 167.07 595.51 164.32 590.23 169.17 588.47"/>
  <line class="st7" x1="210.04" y1="616.12" x2="210.04" y2="657.12"/>
  <polygon class="st1" points="280.06 742.35 272.7 803.36 210.29 773.1 234.81 767.84 212.24 756.9 280.06 742.35"/>
  <polygon class="st1" points="187.73 762.16 210.29 773.1 142.46 787.65 149.83 726.64 212.24 756.9 187.73 762.16"/>
  <polygon class="st1" points="169.17 588.47 167.07 595.51 164.32 590.23 169.17 588.47"/>
  <g>
    <polygon class="st0" points="191.05 762.57 212.09 757.48 231.48 767.45 210.44 772.59 191.05 762.57"/>
    <path class="st8" d="M211.95,758.72l16.2,8.34-17.57,4.29-16.21-8.39,17.57-4.25M212.24,756.23l-24.52,5.94,22.56,11.67,24.51-5.99-22.56-11.61h.01Z"/>
  </g>
  <polygon class="st1" points="256.89 589.13 254.84 597.38 254.78 597.6 254.66 597.38 251.86 592.14 256.89 589.13"/>
  <g>
    <path class="st0" d="M427.78,587.42c17.08,0,28.86,5.19,28.86,19.31v2.72c0,7.38-3.63,11.83-9.37,14.99v3.16c7.81,3.14,11.71,8.81,11.71,16.78v3.26c0,12.07-9.2,20.63-30.35,20.63h-66.88v-80.83h66.02ZM382.83,620.22h41.19c6.84,0,11.53-2.39,11.53-7.77v-1.91c0-5.38-4.21-7.88-11.53-7.88h-41.19v17.57h0ZM382.83,653.02h42.02c8.77,0,13.04-2.87,13.04-8.48v-1.91c0-6.09-4.76-8.35-13.04-8.35h-42.02v18.74Z"/>
    <path class="st0" d="M725.71,606.17l-48.72,88.82c-10.94,14.26-18.39,22.42-58.37,16-29.11-4.67-60.55-21.77-88.81-22.5-5.66-.15-12.25,1.72-13.47,8.57-.43,2.47.39,4.74,2.5,6.17,2.18,1.46,8.82,3.58,10.19.07.23-.61.11-1.3.04-1.96-.12-.89-.4-1.89-.94-2.45-1.09-1.16-2.82-1.7-4.55-1.17,1.66-1.05,3.69-1.04,5.51.63,1.77,1.63,2.06,3.32,2.07,4.09.01.62,0,1.27-.2,1.85-.46,1.38-1.83,2.32-3.24,2.66-1.42.34-2.91.19-4.36.02-5.88-.62-9.51-4.22-9.43-10.32.12-9.18,5.42-14.37,10.84-15.72,5.42-1.35,11.12-.87,16.65-.11,18.6,2.57,72.22,20.3,91,20.3,14.15,0,19.68-1.82,29.39-12.96,11.15-13.74,6.2-27.94-1.44-40.07l-17.27-27.82h-40.2v22.16c0,7.23,3.83,11.81,11.73,11.81h3.6c7.91,0,11.62-4.58,11.62-11.81v-1.08h17.57v1.09c0,18.54-11.14,27.03-29.09,27.03h-3.6c-19.63,0-32.92-8.48-32.92-27.03v-22.18h-51.45v22.16c0,7.23,3.83,11.81,11.74,11.81h3.6c7.9,0,11.61-4.58,11.61-11.81v-1.08h17.57v1.09c0,18.54-11.13,27.03-29.09,27.03h-3.6c-19.63,0-32.92-8.48-32.92-27.03v-22.18h-21.5v47.97h-21.09v-62.09h21.09l9.93.02,11.56.04v-16.4h21.09v16.4h51.45v-16.4h21.09v16.4l53.84-.06,23.36,37.49h5.62l20.61-37.49h19.4Z"/>
    <path class="st0" d="M485.71,606.16h2.06s-2.06.01-2.06.01h0Z"/>
  </g>
  <path class="st0" d="M487.78,620.29"/>
  <path class="st0" d="M477.95,597.62c-6.43.48-12.35-2.37-12.43-9.04,0-1.64.43-3.13,1.21-4.4l4.4-9.82,2.28,5.42c.78-.16,2.69-.3,3.55-.3.74-.05,2.68.15,3.49.32l2.3-5.44,4.36,9.72c3.33,5.33.27,13.46-9.16,13.54h0Z"/>
  <rect class="st9" x="865.9" y="503.05" width="275.38" height="324.56"/>
  <path class="st8" d="M1097.12,672.68c0,51.66-41.88,93.53-93.53,93.53s-93.53-41.87-93.53-93.53c0-18.73,5.52-36.2,15.02-50.83l38.47-99.6,12.32,61.08c8.76-2.72,18.06-4.18,27.72-4.18,12.04,0,23.56,2.27,34.12,6.43l25.09-64.96,20.97,103.89c8.47,14.06,13.34,30.55,13.34,48.16h0Z"/>
  <polygon class="st6" points="988.48 657.85 973.12 639.29 1003.84 639.29 988.48 657.85"/>
  <polygon class="st9" points="1034.71 627.18 1057.98 636.89 1011.43 636.89 1034.71 627.18"/>
  <polygon class="st9" points="959.38 626.17 982.66 635.88 936.11 635.88 959.38 626.17"/>
  <line class="st3" x1="988.48" y1="657.61" x2="988.48" y2="689.52"/>
  <polygon class="st2" points="1049.08 762.36 1042.71 815.17 988.69 788.98 1009.91 784.42 990.38 774.95 1049.08 762.36"/>
  <polygon class="st2" points="969.17 779.51 988.69 788.98 929.99 801.57 936.35 748.77 990.38 774.95 969.17 779.51"/>
  <polygon class="st5" points="948.91 630.7 951.28 635.27 953.1 629.18 948.91 630.7"/>
  <g>
    <polygon class="st8" points="972.74 779.94 990.23 776.18 1006.33 784 988.83 787.75 972.74 779.94"/>
    <path class="st9" d="M990.09,777.41l12.67,6.14-13.76,2.95-12.67-6.14,13.78-2.95M990.38,774.95l-21.21,4.56,19.53,9.47,21.21-4.56-19.53-9.47h0Z"/>
  </g>
  <polygon class="st5" points="1023.61 631.14 1027.2 637.08 1029.17 629.16 1023.61 631.14"/>
  <rect class="st9" x="864.73" y="14.28" width="277.72" height="163.77"/>
  <g>
    <path class="st8" d="M937.69,69.96c10.31,0,17.41,3.13,17.41,11.64v1.64c0,4.45-2.19,7.13-5.66,9.04v1.91c4.71,1.9,7.06,5.32,7.06,10.12v1.97c0,7.27-5.55,12.45-18.31,12.45h-40.34v-48.77h39.84ZM910.57,89.74h24.85c4.12,0,6.96-1.44,6.96-4.69v-1.15c0-3.24-2.53-4.76-6.96-4.76h-24.85v10.6h0ZM910.57,109.53h25.35c5.29,0,7.86-1.73,7.86-5.12v-1.15c0-3.68-2.87-5.04-7.86-5.04h-25.35v11.3Z"/>
    <path class="st8" d="M1117.43,81.26l-29.39,53.58c-6.6,8.6-11.09,13.53-35.21,9.65-17.56-2.82-36.54-13.13-53.58-13.58-3.41-.08-7.39,1.04-8.13,5.18-.26,1.5.23,2.86,1.51,3.73,1.31.89,5.32,2.17,6.15.05.14-.37.06-.78.02-1.18-.07-.54-.25-1.14-.56-1.48-.66-.7-1.7-1.03-2.74-.71,1.01-.63,2.23-.62,3.33.39,1.07.97,1.24,1.99,1.25,2.47,0,.37,0,.76-.12,1.11-.28.84-1.1,1.39-1.96,1.6-.86.2-1.76.12-2.62.02-3.54-.39-5.74-2.54-5.69-6.23.07-5.54,3.27-8.67,6.54-9.49,3.27-.81,6.71-.52,10.04-.06,11.22,1.55,43.57,12.24,54.91,12.24,8.54,0,11.88-1.09,17.74-7.81,6.72-8.29,3.74-16.86-.88-24.18l-10.41-16.79h-24.26v13.38c0,4.36,2.31,7.12,7.09,7.12h2.17c4.77,0,7.01-2.75,7.01-7.12v-.66h10.6v.66c0,11.19-6.72,16.31-17.55,16.31h-2.17c-11.84,0-19.86-5.12-19.86-16.31v-13.38h-31.04v13.38c0,4.36,2.31,7.12,7.09,7.12h2.17c4.77,0,7.01-2.75,7.01-7.12v-.66h10.6v.66c0,11.19-6.71,16.31-17.55,16.31h-2.17c-11.84,0-19.86-5.12-19.86-16.31v-13.38h-12.97v28.95h-12.72v-37.46h12.72l12.97.04v-9.9h12.72v9.9h31.04v-9.9h12.72v9.9h18.99l-.02-.04h13.52l14.09,22.62h3.4l12.43-22.62h11.7-.05Z"/>
    <path class="st8" d="M967.96,76.11c-3.88.29-7.45-1.43-7.5-5.46,0-.98.26-1.89.73-2.66l2.66-5.93,1.38,3.27c.47-.09,1.63-.19,2.14-.19.45-.04,1.62.09,2.11.19l1.38-3.28,2.62,5.87c2,3.22.16,8.12-5.53,8.16v.02Z"/>
  </g>
</svg>