<?xml version="1.0" encoding="UTF-8"?>
<svg id="Layer_1" xmlns="http://www.w3.org/2000/svg" version="1.1" viewBox="0 0 710.87 536.11">
  <!-- Generator: Adobe Illustrator 29.2.1, SVG Export Plug-In . SVG Version: 2.1.0 Build 116)  -->
  <defs>
    <style>
      .st0, .st1, .st2 {
        fill: #231f20;
      }

      .st1 {
        stroke-linejoin: round;
        stroke-width: 2px;
      }

      .st1, .st2 {
        stroke: #231f20;
      }

      .st2 {
        stroke-miterlimit: 10;
      }
    </style>
  </defs>
  <g id="Layer_1-2">
    <path class="st0" d="M695.99,15.04v506.03H14.88V15.04h681.11M710.87,0H0v536.11h710.87V0h0Z"/>
  </g>
  <g id="Layer_3">
    <path class="st0" d="M250.73,479.67L109.84,99.3v369.42l53.88.36v10.88H60.11v-11.29l35.52.05V70.88l-35.52-.12v-12.32h75.19l131.44,357.58V70.88h-49.73v-12.44h96.49v12.45h-32.56v408.76h-30.2l-.02.02h0Z"/>
  </g>
  <g id="Layer_4">
    <g>
      <path class="st2" d="M352.88,423.71l-15.41,27.6v24.99h6.98c.84,0,1.46.38,1.46,1.22,0,.76-.61,1.22-1.46,1.22h-32.35c-.84,0-1.46-.46-1.46-1.22,0-.84.61-1.22,1.46-1.22h6.98v-24.23c-2.3-1.07-4.6-1.69-6.75-1.69-.93,0-1.69-.31-1.69-1.31,0-.76.76-1.14,1.69-1.14,1.69,0,3.46.31,5.21.93l-12.42-25.14h-6.2c-.84,0-1.46-.38-1.46-1.22,0-.76.61-1.22,1.46-1.22h31.59c.84,0,1.46.46,1.46,1.22,0,.84-.61,1.22-1.46,1.22h-5.99l11.81,23.91,13.26-23.91h-7.74c-.84,0-1.46-.38-1.46-1.22,0-.76.61-1.22,1.46-1.22h16.64c.84,0,1.46.46,1.46,1.22,0,.84-.61,1.22-1.46,1.22h-5.59l-.02-.02h0ZM334.41,463.63v-13.18l-12.95-26.76h-13.33l13.64,26.91c4.98,2.68,9.66,7.28,12.65,13.03h-.02,0ZM322.16,453.76v5.52h6.05c-1.77-2.22-3.9-4.07-6.05-5.52ZM322.16,461.73v3.22h9.66c-.53-1.07-1.14-2.15-1.77-3.22h-7.89ZM332.89,467.4h-10.73v3.22h11.66c-.23-1.07-.53-2.15-.93-3.22ZM334.26,473.07h-12.11v3.22h12.27c0-1.31-.08-2.22-.15-3.22h-.02,0Z"/>
      <path class="st2" d="M376.56,449.08c0-.76.76-1.14,1.69-1.14,2.15,0,4.45.46,6.75,1.37v-25.6h-6.98c-.84,0-1.46-.38-1.46-1.22,0-.76.61-1.22,1.46-1.22h28.74c15.25,0,25.22,6.98,25.22,20.85,0,10.88-6.52,17.86-16.17,20.01,1.98.99,3.61,2.45,4.91,4.07l3.75,4.75c2.45,3.06,4.83,5.21,8.96,5.21,1.77,0,2.38.46,2.38,1.31s-.61,1.31-2.45,1.31c-5.06,0-8.12-1.77-11.2-5.67l-3.9-4.98c-2.45-3.06-5.14-4.98-9.28-4.98-.76,0-1.54-.31-1.54-1.31s.76-1.31,1.6-1.31c11.72,0,19.78-6.14,19.78-18.55s-8.43-18.24-22.14-18.24h-3.29v52.59h6.98c.84,0,1.46.38,1.46,1.22,0,.76-.61,1.22-1.46,1.22h-32.35c-.84,0-1.46-.46-1.46-1.22,0-.84.61-1.22,1.46-1.22h6.98v-24.23c-2.3-1.07-4.6-1.69-6.75-1.69-.93,0-1.69-.31-1.69-1.31l-.02-.02h.02ZM400.31,463.63v-39.94h-12.27v27.14c4.83,2.68,9.34,7.21,12.27,12.8ZM388.06,453.76v5.52h6.05c-1.77-2.22-3.9-4.07-6.05-5.52ZM388.06,461.73v3.22h9.66c-.53-1.07-1.14-2.15-1.77-3.22h-7.89ZM398.79,467.4h-10.73v3.22h11.64c-.23-1.07-.53-2.15-.93-3.22h.02ZM400.16,473.07h-12.11v3.22h12.27c0-1.31-.08-2.22-.15-3.22h-.02,0Z"/>
      <path class="st2" d="M454.19,449.08c0-.76.76-1.14,1.69-1.14,2.15,0,4.45.46,6.75,1.37v-25.6h-6.98c-.84,0-1.46-.46-1.46-1.22s.61-1.22,1.46-1.22h47.99c.93,0,1.46.53,1.46,1.46v11.26c0,.93-.53,1.6-1.46,1.6s-1.46-.69-1.46-1.6v-10.27h-21.15v30.2h14.8c.76,0,1.31.46,1.31,1.31s-.53,1.31-1.31,1.31h-14.8v19.78h21.53v-11.03c0-.93.55-1.6,1.46-1.6s1.46.69,1.46,1.6v12.04c0,.84-.46,1.46-1.46,1.46h-48.37c-.84,0-1.46-.46-1.46-1.22s.61-1.22,1.46-1.22h6.98v-24.23c-2.3-1.07-4.6-1.69-6.75-1.69-.93,0-1.69-.31-1.69-1.31v-.04ZM477.95,463.63v-39.94h-12.27v27.14c4.83,2.68,9.34,7.21,12.27,12.8ZM465.68,453.76v5.52h6.05c-1.77-2.22-3.9-4.07-6.05-5.52ZM465.68,461.73v3.22h9.66c-.53-1.07-1.14-2.15-1.77-3.22h-7.89ZM476.41,467.4h-10.73v3.22h11.64c-.23-1.07-.53-2.15-.93-3.22h.02ZM477.8,473.07h-12.11v3.22h12.27c0-1.31-.08-2.22-.15-3.22h-.02,0ZM497.6,401.8c.88-.66,1.92-.38,2.55.4.56.93.53,1.72-.51,2.41l-12.68,8.88c-.76.55-1.6.41-2.08-.08s-.5-1.39.51-2.17l12.24-9.46-.02.02h-.01Z"/>
      <path class="st2" d="M578.73,423.71v53.58c0,.93-.53,1.46-1.46,1.46h-4.37c-.84,0-1.31-.23-1.77-.93l-33.42-46.98v45.46h7.74c.84,0,1.46.46,1.46,1.22s-.61,1.22-1.46,1.22h-17.78c-.84,0-1.46-.46-1.46-1.22s.61-1.22,1.46-1.22h6.98v-25.14c-2.38-.46-4.6-.76-6.75-.76-.93,0-1.69-.31-1.69-1.31,0-.76.76-1.14,1.69-1.14,2.15,0,4.45.23,6.75.69v-24.9h-6.98c-.84,0-1.46-.46-1.46-1.22s.61-1.22,1.46-1.22h24c.84,0,1.31.23,1.69.76l22.31,30.58v-28.89h-7.13c-.84,0-1.46-.46-1.46-1.22s.61-1.22,1.46-1.22h17.17c.84,0,1.46.46,1.46,1.22s-.61,1.22-1.46,1.22h-6.98v-.03h0ZM551.06,423.71h-13.35v2.3l16.32,22.92c7.04,1.07,16.02,3.9,21.61,8.73l-24.61-33.95h.03ZM556.12,451.84l1.6,2.3h6.98c-2.91-.99-5.82-1.77-8.58-2.3h0ZM569.07,456.06h-9.97l2.3,3.22h12.27c-1.46-1.22-2.99-2.3-4.6-3.22h0ZM565.4,464.94h10.27v-3.22h-12.57l2.3,3.22h0ZM569.45,470.61h6.22v-3.22h-8.52l2.3,3.22h0ZM573.37,476.13h2.3v-3.06h-4.51l2.22,3.06h0Z"/>
      <path class="st2" d="M605.62,449.08c0-.76.69-1.14,1.69-1.14,1.6,0,3.14.08,4.75.15-1.6-2.38-2.45-5.21-2.45-8.58,0-11.81,11.05-19.7,24.29-19.7,5.9,0,10.82,2.22,13.35,5.21v-2.84c0-.76.46-1.37,1.37-1.37s1.39.61,1.39,1.37v14.11c0,.84-.46,1.46-1.39,1.46s-1.37-.61-1.37-1.46v-6.28c0-2.22-4.45-7.74-12.8-7.74-5.14,0-9.97,2.53-9.97,9.74,0,3.75,2.68,6.05,8.29,7.97l8.58,2.99c7.04,2.45,12.11,7.51,12.11,15.94,0,14.87-14.25,21.08-25.37,21.08-6.75,0-13.64-2.45-17.02-8.05v5.59c0,.84-.46,1.46-1.39,1.46s-1.37-.61-1.37-1.46v-17.48c0-.84.46-1.46,1.37-1.46s1.39.61,1.39,1.46v3.22c0,8.52,7.82,14.34,16.47,14.34,7.89,0,10.42-5.75,10.42-10.88,0-4.6-3.29-7.51-8.52-9.28l-7.44-2.53c-3.06-.99-5.59-2.45-7.67-4.22-2.3-.15-4.68-.31-7.04-.31-.99,0-1.69-.31-1.69-1.31h.03,0ZM616.28,448.3c14.57,1.46,26.44,5.52,31.65,11.81.93,1.14,1.6,2.22,2,3.46.31-1.31.46-2.61.46-4.07,0-7.44-3.69-11.64-10.65-14.11l-8.67-3.06c-6.05-2.15-9.66-5.21-9.66-10.19,0-2.61.76-6.52,4.07-8.96-7.89,2.68-12.8,9.05-12.8,16.09,0,3.75,1.22,6.75,3.61,9.05l-.02-.02h0ZM628.77,454.29h4.75c-3.84-1.31-8.2-2.3-13.03-2.99.93.46,1.98.84,8.29,2.99h0ZM638.13,459.26h5.36c-1.46-1.14-3.37-2.22-5.52-3.22h-4.51c1.84.93,3.46,1.92,4.68,3.22h0ZM636.82,476.51c2.38-.84,4.68-2,6.6-3.46h-3.84c-.69,1.31-1.6,2.45-2.76,3.46h0ZM640.87,464.94h6.75c-.23-1.07-.76-2.15-1.6-3.22h-6.14c.53.99.84,2.07.99,3.22ZM640.49,470.61h5.59c.84-.76,1.37-1.92,1.6-3.22h-6.75c-.08,1.14-.23,2.22-.46,3.22h.02Z"/>
    </g>
  </g>
  <g id="Layer_7">
    <g>
      <g>
        <path class="st1" d="M504.14,364.71c21.46-55.3,55.71-86.85,113.41-74.91-61.17,17.05-90.24,57.38-102.94,78.96-4.51,1.34-9.91-2.32-10.48-4.05h.02-.01Z"/>
        <path class="st1" d="M566.59,291.5l14.72-3.24c62.94-79.99,93.19-151.73,32.4-200.44,33.06,63.73,6.02,123.2-47.13,203.69h.02-.01Z"/>
        <path class="st1" d="M564.65,131.83c-9.03,9.59-14.98,21.85-18.21,34.94-4.15,16.8-.1,35.01,11.96,46.93,2.07,2.03,4.32,3.97,6.73,5.8,9.69,7.33,14.85,19.76,12.77,32.07-2.03,12.11-6.71,26.03-11.31,39.89l26.29-42.91c.33-25.4-2.17-38.32-18.52-50.27-6.57-4.81-10.73-12.45-11.61-20.79-1.5-14.35-2.27-32.36,1.9-45.67v.02h0Z"/>
      </g>
      <g>
        <path class="st1" d="M446.46,363.93c-21.46-55.3-55.42-86.07-113.11-74.14,61.17,17.05,89.75,56.54,102.45,78.12,4.43,1.41,9.96-1.89,10.67-3.99h-.01Z"/>
        <path class="st1" d="M384.33,291.5l-14.72-3.24c-62.94-79.99-93.19-151.73-32.4-200.44-33.06,63.73-6.02,123.2,47.13,203.69h-.02,0Z"/>
        <path class="st1" d="M386.27,131.83c9.03,9.59,14.98,21.85,18.21,34.94,4.15,16.8.1,35.01-11.96,46.93-2.07,2.03-4.32,3.97-6.73,5.8-9.69,7.33-14.85,19.76-12.77,32.07,2.03,12.11,6.71,26.03,11.31,39.89l-26.29-42.91c-.33-25.4,2.17-38.32,18.52-50.27,6.57-4.81,10.73-12.45,11.61-20.79,1.5-14.35,2.27-32.36-1.9-45.67v.02h0Z"/>
      </g>
    </g>
  </g>
</svg>