<?xml version="1.0" encoding="UTF-8"?>
<svg xmlns="http://www.w3.org/2000/svg" version="1.1" viewBox="0 0 841.89 595.28">
  <!-- Generator: Adobe Illustrator 29.2.1, SVG Export Plug-In . SVG Version: 2.1.0 Build 116)  -->
  <defs>
    <style>
      .st0 {
        stroke-width: 4px;
      }

      .st0, .st1, .st2, .st3 {
        stroke: #231f20;
      }

      .st0, .st1, .st3 {
        stroke-linejoin: round;
      }

      .st0, .st3 {
        fill: none;
        stroke-linecap: round;
      }

      .st1, .st2 {
        fill: #231f20;
      }

      .st1, .st3 {
        stroke-width: 2px;
      }

      .st2 {
        stroke-miterlimit: 10;
      }
    </style>
  </defs>
  <g id="Layer_4">
    <text/>
  </g>
  <g id="Layer_7">
    <path class="st0" d="M334.01,375.86"/>
    <path class="st3" d="M354.75,320.79"/>
    <path class="st2" d="M318.92,320.72l-33.89-91.48v88.84l12.96.11v2.59h-24.92v-2.69l8.54-.02v-95.68l-8.54-.03v-2.96h18.08l31.61,86v-83.01l-11.96-.14v-2.85h23.21v2.94l-7.83.05v98.31h-7.26Z"/>
    <g>
      <path class="st2" d="M376.33,284.19l-10.02,17.95v16.25h4.54c.55,0,.95.25.95.8,0,.5-.4.8-.95.8h-21.04c-.55,0-.95-.3-.95-.8,0-.55.4-.8.95-.8h4.54v-15.76c-1.5-.7-2.99-1.1-4.39-1.1-.6,0-1.1-.2-1.1-.85,0-.5.5-.75,1.1-.75,1.1,0,2.24.2,3.39.6l-8.08-16.35h-4.04c-.55,0-.95-.25-.95-.8,0-.5.4-.8.95-.8h20.54c.55,0,.95.3.95.8,0,.55-.4.8-.95.8h-3.89l7.68,15.55,8.63-15.55h-5.04c-.55,0-.95-.25-.95-.8,0-.5.4-.8.95-.8h10.82c.55,0,.95.3.95.8,0,.55-.4.8-.95.8h-3.64ZM364.32,310.17v-8.58l-8.43-17.4h-8.67l8.87,17.5c3.24,1.75,6.28,4.74,8.23,8.48ZM356.34,303.74v3.59h3.94c-1.15-1.45-2.54-2.64-3.94-3.59ZM356.34,308.92v2.09h6.28c-.35-.7-.75-1.4-1.15-2.09h-5.14ZM363.32,312.61h-6.98v2.09h7.58c-.15-.7-.35-1.4-.6-2.09ZM364.22,316.3h-7.88v2.09h7.98c0-.85-.05-1.45-.1-2.09Z"/>
      <path class="st2" d="M391.73,300.7c0-.5.5-.75,1.1-.75,1.4,0,2.89.3,4.39.9v-16.65h-4.54c-.55,0-.95-.25-.95-.8,0-.5.4-.8.95-.8h18.7c9.92,0,16.4,4.54,16.4,13.56,0,7.08-4.24,11.62-10.52,13.01,1.3.65,2.34,1.6,3.19,2.64l2.44,3.09c1.6,1.99,3.14,3.39,5.83,3.39,1.15,0,1.55.3,1.55.85s-.4.85-1.6.85c-3.29,0-5.28-1.15-7.28-3.69l-2.54-3.24c-1.6-1.99-3.34-3.24-6.03-3.24-.5,0-1-.2-1-.85s.5-.85,1.05-.85c7.63,0,12.86-3.99,12.86-12.07s-5.48-11.87-14.41-11.87h-2.14v34.2h4.54c.55,0,.95.25.95.8,0,.5-.4.8-.95.8h-21.04c-.55,0-.95-.3-.95-.8,0-.55.4-.8.95-.8h4.54v-15.76c-1.5-.7-2.99-1.1-4.39-1.1-.6,0-1.1-.2-1.1-.85ZM407.19,310.17v-25.98h-7.98v17.65c3.14,1.74,6.08,4.69,7.98,8.33ZM399.21,303.74v3.59h3.94c-1.15-1.45-2.54-2.64-3.94-3.59ZM399.21,308.92v2.09h6.28c-.35-.7-.75-1.4-1.15-2.09h-5.14ZM406.19,312.61h-6.98v2.09h7.58c-.15-.7-.35-1.4-.6-2.09ZM407.09,316.3h-7.88v2.09h7.98c0-.85-.05-1.45-.1-2.09Z"/>
      <path class="st2" d="M442.24,300.7c0-.5.5-.75,1.1-.75,1.4,0,2.89.3,4.39.9v-16.65h-4.54c-.55,0-.95-.3-.95-.8s.4-.8.95-.8h31.21c.6,0,.95.35.95.95v7.33c0,.6-.35,1.05-.95,1.05s-.95-.45-.95-1.05v-6.68h-13.76v19.64h9.62c.5,0,.85.3.85.85s-.35.85-.85.85h-9.62v12.86h14.01v-7.18c0-.6.35-1.05.95-1.05s.95.45.95,1.05v7.83c0,.55-.3.95-.95.95h-31.46c-.55,0-.95-.3-.95-.8s.4-.8.95-.8h4.54v-15.76c-1.5-.7-2.99-1.1-4.39-1.1-.6,0-1.1-.2-1.1-.85ZM457.69,310.17v-25.98h-7.98v17.65c3.14,1.74,6.08,4.69,7.98,8.33ZM449.71,303.74v3.59h3.94c-1.15-1.45-2.54-2.64-3.94-3.59ZM449.71,308.92v2.09h6.28c-.35-.7-.75-1.4-1.15-2.09h-5.14ZM456.69,312.61h-6.98v2.09h7.58c-.15-.7-.35-1.4-.6-2.09ZM457.59,316.3h-7.88v2.09h7.98c0-.85-.05-1.45-.1-2.09Z"/>
      <path class="st2" d="M523.25,284.19v34.85c0,.6-.35.95-.95.95h-2.84c-.55,0-.85-.15-1.15-.6l-21.74-30.56v29.56h5.04c.55,0,.95.3.95.8s-.4.8-.95.8h-11.57c-.55,0-.95-.3-.95-.8s.4-.8.95-.8h4.54v-16.35c-1.55-.3-2.99-.5-4.39-.5-.6,0-1.1-.2-1.1-.85,0-.5.5-.75,1.1-.75,1.4,0,2.89.15,4.39.45v-16.2h-4.54c-.55,0-.95-.3-.95-.8s.4-.8.95-.8h15.61c.55,0,.85.15,1.1.5l14.51,19.89v-18.8h-4.64c-.55,0-.95-.3-.95-.8s.4-.8.95-.8h11.17c.55,0,.95.3.95.8s-.4.8-.95.8h-4.54ZM505.25,284.19h-8.68v1.5l10.62,14.91c4.59.7,10.42,2.54,14.06,5.68l-16-22.09ZM508.54,302.49l1.05,1.5h4.54c-1.89-.65-3.79-1.15-5.58-1.5ZM516.97,305.23h-6.48l1.5,2.09h7.98c-.95-.8-1.94-1.5-2.99-2.09ZM514.57,311.02h6.68v-2.09h-8.18l1.5,2.09ZM517.22,314.71h4.04v-2.09h-5.53l1.5,2.09ZM519.76,318.3h1.5v-1.99h-2.94l1.45,1.99Z"/>
      <path class="st2" d="M540.74,300.7c0-.5.45-.75,1.1-.75,1.05,0,2.04.05,3.09.1-1.05-1.55-1.6-3.39-1.6-5.58,0-7.68,7.18-12.81,15.8-12.81,3.84,0,7.03,1.45,8.68,3.39v-1.85c0-.5.3-.9.9-.9s.9.4.9.9v9.17c0,.55-.3.95-.9.95s-.9-.4-.9-.95v-4.09c0-1.45-2.89-5.04-8.33-5.04-3.34,0-6.48,1.65-6.48,6.33,0,2.44,1.75,3.94,5.39,5.19l5.58,1.94c4.59,1.6,7.88,4.89,7.88,10.37,0,9.67-9.27,13.71-16.5,13.71-4.39,0-8.87-1.6-11.07-5.24v3.64c0,.55-.3.95-.9.95s-.9-.4-.9-.95v-11.37c0-.55.3-.95.9-.95s.9.4.9.95v2.09c0,5.53,5.09,9.32,10.72,9.32,5.14,0,6.78-3.74,6.78-7.08,0-2.99-2.14-4.89-5.53-6.03l-4.84-1.64c-1.99-.65-3.64-1.6-4.99-2.74-1.5-.1-3.04-.2-4.59-.2-.65,0-1.1-.2-1.1-.85ZM547.67,300.2c9.47.95,17.2,3.59,20.59,7.68.6.75,1.05,1.45,1.3,2.24.2-.85.3-1.7.3-2.64,0-4.84-2.39-7.58-6.93-9.17l-5.63-1.99c-3.94-1.4-6.28-3.39-6.28-6.63,0-1.7.5-4.24,2.64-5.83-5.13,1.75-8.32,5.88-8.32,10.47,0,2.44.8,4.39,2.34,5.88ZM555.8,304.09h3.09c-2.49-.85-5.33-1.5-8.48-1.94.6.3,1.3.55,5.38,1.94ZM561.88,307.33h3.49c-.95-.75-2.19-1.45-3.59-2.09h-2.94c1.2.6,2.24,1.25,3.04,2.09ZM561.03,318.55c1.55-.55,3.04-1.3,4.29-2.24h-2.49c-.45.85-1.05,1.6-1.8,2.24ZM563.68,311.02h4.39c-.15-.7-.5-1.4-1.05-2.09h-3.99c.35.65.55,1.35.65,2.09ZM563.43,314.71h3.64c.55-.5.9-1.25,1.05-2.09h-4.39c-.05.75-.15,1.45-.3,2.09Z"/>
    </g>
    <g>
      <g>
        <path class="st1" d="M376.18,347.92c-47.23-19.49-86.59-16.61-113.44,26.45,46.98-27.99,88.59-22.35,109.59-17.43,3.52-1.92,4.73-7.33,3.86-9.02Z"/>
        <path class="st1" d="M294.09,343.6l-10.77,7.25c-87.27-8.31-149.96-32.08-144.21-98.93,20.09,58.49,73.22,76.98,154.98,91.68Z"/>
        <path class="st1" d="M195.73,247.51c11.35.07,22.51,3.64,32.61,9.42,12.94,7.4,21.88,20.74,22.15,35.34.05,2.5-.09,5.05-.38,7.65-1.19,10.39,3.49,21,12.4,27.02,8.76,5.93,20.22,11.28,31.58,16.66l-42.38-9.12c-16.03-14.89-22.59-24.12-20.34-41.42.91-6.95-1.38-14.09-6.05-19.59-8.05-9.47-18.82-20.64-29.6-25.96Z"/>
      </g>
      <g>
        <path class="st1" d="M465.71,347.92c47.23-19.49,86.59-16.61,113.44,26.45-46.98-27.99-88.59-22.35-109.59-17.43-3.52-1.92-4.73-7.33-3.86-9.02Z"/>
        <path class="st1" d="M547.8,343.6l10.77,7.25c87.27-8.31,149.96-32.08,144.21-98.93-20.09,58.49-73.22,76.98-154.98,91.68Z"/>
        <path class="st1" d="M646.16,247.51c-11.35.07-22.51,3.64-32.61,9.42-12.94,7.4-21.88,20.74-22.15,35.34-.05,2.5.09,5.05.38,7.65,1.19,10.39-3.49,21-12.4,27.02-8.76,5.93-20.22,11.28-31.58,16.66l42.38-9.12c16.03-14.89,22.59-24.12,20.34-41.42-.91-6.95,1.38-14.09,6.05-19.59,8.05-9.47,18.82-20.64,29.6-25.96Z"/>
      </g>
    </g>
    <path class="st2" d="M470.96,272.49c.63-.35,1.27-.07,1.6.49.28.65.18,1.16-.56,1.51l-8.99,4.54c-.54.28-1.07.12-1.33-.24-.26-.36-.19-.94.54-1.35l8.75-4.95Z"/>
  </g>
</svg>