<?xml version="1.0" encoding="UTF-8"?>
<svg id="Layer_1" data-name="Layer 1" xmlns="http://www.w3.org/2000/svg" viewBox="0 0 329.96 290.22">
  <defs>
    <style>
      .cls-1, .cls-2, .cls-3, .cls-4 {
        stroke-miterlimit: 10;
      }

      .cls-1, .cls-3 {
        stroke: #f1f2f2;
      }

      .cls-1, .cls-3, .cls-4 {
        stroke-width: 6px;
      }

      .cls-1, .cls-4 {
        fill: #b5e3f3;
      }

      .cls-5 {
        fill: #9ed1e3;
      }

      .cls-6 {
        fill: #f1f2f2;
      }

      .cls-2, .cls-7 {
        fill: #9dd1e3;
        stroke: #9ed1e3;
      }

      .cls-3 {
        fill: none;
        stroke-linecap: round;
      }

      .cls-4 {
        stroke: #9dd1e3;
      }

      .cls-7 {
        stroke-linejoin: round;
        stroke-width: 2px;
      }
    </style>
  </defs>
  <polygon class="cls-2" points="158.16 247.63 158.16 289.72 177.65 289.72 177.65 283.18 184.42 283.18 184.42 289.72 234.41 289.72 234.41 279.15 194.76 268.67 194.76 250.64 182.46 250.64 182.46 242.2 158.16 242.2 158.16 247.63"/>
  <polygon class="cls-2" points="147.06 247.63 147.06 289.72 127.57 289.72 127.57 283.18 120.8 283.18 120.8 289.72 70.81 289.72 70.81 279.15 110.46 268.67 110.46 250.64 122.76 250.64 122.76 242.2 147.06 242.2 147.06 247.63"/>
  <path class="cls-2" d="M300.83,123.51c.06-.62.69-1.05,1.33-.9,19.33,4.79,28.83,13.81,27.1,27.66l-3.25,42.09s0,.07,0,.1c.28,6.12-2.28,11.29-6.45,15.93-5.19,5.77-13.21,8.47-21.07,7.23l-85.01-13.37c-.71-.11-1.1-.85-.78-1.47l19.41-36.56c.21-.4.67-.62,1.13-.54l54.39,8.7c1.2.19,1.75-1.38.67-1.91h0c-.66-.33-.78-1.18-.23-1.66l8.93-7.82c.2-.17.32-.41.34-.66l3.5-36.84Z"/>
  <path class="cls-4" d="M151.97,254.23c-64.3,0-148.97-49.34-148.97-129.26V37.63c0-19.13,16.23-34.63,36.24-34.63h225.46c20.02,0,36.24,15.5,36.24,34.63v84.69c0,4.76-.56,12.51-1.28,17.21-13.25,86.65-86.48,114.69-147.69,114.69Z"/>
  <path class="cls-4" d="M151.58,237.48h0c-66.44-6.36-115.31-33.32-129.73-89.1-2.62-10.13-3.79-20.55-3.79-30.98v-63.87c0-19.13,16.23-34.63,36.24-34.63h194.56c20.02,0,36.24,15.5,36.24,34.63v69.53c0,4.21-.57,11.04-1.36,15.18-12.02,63.39-61.07,95.51-132.16,99.24Z"/>
  <path class="cls-3" d="M162.72,78.15c-6.31,4.11-15.76,4.11-22.18.02"/>
  <path class="cls-6" d="M36.63,137.06c-.78.05-2.16-.25-2.88-.45-1.02-.25-1.98-.56-2.88-1.01-.72-.35-1.38-.76-1.86-1.26-1.26-1.46-2.4-3.03-2.52-4.95-.06-1.31-.18-2.63-.12-4.04-.12-1.11.12-2.37.06-3.59.18-1.57-.18-3.18-.06-4.75v-.91c-.3-2.02-.12-4.04-.06-6.11.06-1.01.12-2.02.12-3.03.06-1.62-.06-2.98.42-4.6.06-.3.36-.81.6-1.06.24-.25.36-.56.6-.81,1.56-2.02,3.73-3.44,6.55-4.09,1.32-.3,2.94-.4,3.91-.45.84.15,2.22-.05,3.19.35.42.15.9.25,1.38.35,2.16.66,3.73,1.72,5.05,3.03,1.08,1.11,1.38,2.42,1.56,3.89.06,1.57.12,3.18-.06,4.75,0,.2-.12.4-.06.56.3.76.18,1.57.12,2.37.12,2.12.18,4.29.24,6.47,0,1.87-.06,3.79-.12,5.71,0,1.01-.12,2.02-.06,3.03.06,1.57,0,3.08-.42,4.6-.06.25-.18.51-.24.76-.12.45-.36.81-.66,1.16-1.2,1.77-2.7,2.83-4.99,3.44-.36.15-.84.3-1.32.4-1.2.15-2.46.35-3.73.3-.6-.05-1.14-.05-1.74-.05ZM44.81,131.25c1.38-2.12,1.38-2.88,1.5-3.94.06-.86.06-5.51,0-8.49v-2.17c0-1.57,0-7.88.06-8.74.06-.86.12-3.33,0-4.29-.12-.96-1.68-4.65-8.35-4.9-3,.25-6.61,1.72-7.39,4.24-.72,2.32-.66,4.5-.6,5.96.06.76.06,3.38.06,6.01v7.88c-.06,1.57-.12,3.49,0,4.45.18,1.47.54,3.79,1.74,4.85,1.38,1.21,4.09,2.22,6.07,2.22,2.94,0,5.77-1.21,6.91-3.08ZM32.43,131.6c-.72-.66-1.2-2.12-1.5-4.45-.12-.86-.06-2.73,0-4.34v-7.88c0-2.63,0-5.3-.06-6.01-.06-1.46-.12-3.54.6-5.76.66-2.07,3.67-3.49,6.67-3.74,5.95.25,7.27,3.44,7.39,4.29s.06,3.33,0,4.19-.06,7.17-.06,8.74v2.22c.06,2.93.06,7.53,0,8.34-.12,1.16-.12,1.72-1.38,3.74-1.02,1.57-3.55,2.68-6.19,2.68-1.74,0-4.27-.91-5.47-2.02ZM38.02,131c1.08.2,2.1-.2,2.88-.76.48-.35.78-.81.84-1.41.12-1.06.24-2.17.3-3.23-.06-1.92.12-2.88,0-4.8.06-.2.06-.91.06-.91,0-.66-.12-2.27-.06-2.93.24-1.82-.18-4.14,0-7.48-.06-1.16,0-2.37,0-3.54-.06-.61-.18-1.11-.3-1.72-.3-1.16-1.32-1.82-2.7-2.12-1.62-.35-3.97.25-4.39,1.92-.06.25-.18.51-.3.76-.06.25-.06.51-.06.76.06,1.11.06,2.17.06,3.28-.06,2.98-.42,6.01-.18,8.99.18,1.47-.12,2.98,0,4.5,0,1.11.12,2.27.12,3.44,0,.3.06.61,0,.91-.18.66.06,1.26.18,1.92.36,1.57,1.44,2.22,2.88,2.42h.66ZM61.69,136.5c-1.98-.4-3.73-1.16-5.05-2.58l-.24-.3c-.54-1.36-1.32-2.63-1.32-4.09-.06-1.11-.24-2.17-.24-3.28,0-2.37.18-5.2-.06-7.17-.06-1.72.24-3.44,0-5.15-.06-1.01-.06-2.12,0-3.13.12-1.87.06-3.74.18-5.56,0-1.31.24-2.58.84-3.74.54-1.06,1.44-1.92,2.34-2.78.3-.25.6-.45.9-.76.54-.51,1.2-.76,1.92-1.06,2.4-.86,4.87-1.06,7.27-.86,1.98.2,3.91.66,5.65,1.52.06.05.18.05.24.15,1.14.91,2.34,1.77,3.06,3.03.54.91.72,1.87.9,2.88.42,2.12.12,4.24.18,6.31l.06,2.53c.06,2.02-.12,3.99-.12,5.96,0,.66-.06,1.31.06,1.97.12.4.12.81.06,1.21-.12.91,0,1.82,0,2.73-.06,1.26.12,2.58-.24,3.84-.06.1-.06.25-.06.35.12,1.36-.48,2.53-1.08,3.74-.36.91-1.14,1.72-1.92,2.48-.24.2-.54.3-.78.45l-.78.45c-1.38.91-3,1.36-4.69,1.31-1.02,0-1.98.15-3,.1-1.38-.05-2.82-.25-4.09-.56ZM73.35,131.25c1.38-2.12,1.38-2.88,1.5-3.94.06-.86.06-5.51,0-8.49v-2.17c0-1.57,0-7.88.06-8.74.06-.86.12-3.33,0-4.29-.12-.96-1.68-4.65-8.35-4.9-3,.25-6.61,1.72-7.39,4.24-.72,2.32-.66,4.5-.6,5.96.06.76.06,3.38.06,6.01v7.88c-.06,1.57-.12,3.49,0,4.45.18,1.47.54,3.79,1.74,4.85,1.38,1.21,4.09,2.22,6.07,2.22,2.94,0,5.77-1.21,6.91-3.08ZM60.97,131.6c-.72-.66-1.2-2.12-1.5-4.45-.12-.86-.06-2.73,0-4.34v-7.88c0-2.63,0-5.3-.06-6.01-.06-1.46-.12-3.54.6-5.76.66-2.07,3.67-3.49,6.67-3.74,5.95.25,7.27,3.44,7.39,4.29s.06,3.33,0,4.19-.06,7.17-.06,8.74v2.22c.06,2.93.06,7.53,0,8.34-.12,1.16-.12,1.72-1.38,3.74-1.02,1.57-3.55,2.68-6.19,2.68-1.74,0-4.27-.91-5.47-2.02ZM68.18,130.49c.72-.2,1.26-.61,1.5-1.26.06-.3.18-.61.24-.91.18-.96.36-1.97.3-2.98,0-.86-.06-1.77,0-2.63,0-.1,0-.25-.06-.4-.06-.35-.06-.66,0-1.01.06-.25.06-.56.06-.81-.18-2.07.12-3.64-.06-5.71.06-.35.12-1.21.24-1.52-.24-.86,0-1.67-.12-2.53-.06-.81.18-1.67.06-2.48,0-.91-.06-1.77-.06-2.68,0-.3,0-.71-.06-1.01-.12-.76-.48-1.41-1.26-1.82-2.16-1.21-4.51-.4-5.47,1.21-.42.61-.6,1.31-.54,2.12.18,2.53-.12,5-.18,7.53,0,1.11.12,2.27.24,3.44.12,1.36-.06,2.63-.06,3.94v1.21c0,.76-.06,1.57,0,2.37,0,1.11.12,2.32.24,3.49,0,.4.24.86.42,1.21.36.66,1.02,1.11,1.8,1.31.9.2,1.86.2,2.76-.1Z"/>
  <path class="cls-6" d="M207.72,137.06c-.78.05-2.16-.25-2.88-.45-1.02-.25-1.98-.56-2.88-1.01-.72-.35-1.38-.76-1.86-1.26-1.26-1.46-2.4-3.03-2.52-4.95-.06-1.31-.18-2.63-.12-4.04-.12-1.11.12-2.37.06-3.59.18-1.57-.18-3.18-.06-4.75v-.91c-.3-2.02-.12-4.04-.06-6.11.06-1.01.12-2.02.12-3.03.06-1.62-.06-2.98.42-4.6.06-.3.36-.81.6-1.06.24-.25.36-.56.6-.81,1.56-2.02,3.73-3.44,6.55-4.09,1.32-.3,2.94-.4,3.91-.45.84.15,2.22-.05,3.18.35.42.15.9.25,1.38.35,2.16.66,3.73,1.72,5.05,3.03,1.08,1.11,1.38,2.42,1.56,3.89.06,1.57.12,3.18-.06,4.75,0,.2-.12.4-.06.56.3.76.18,1.57.12,2.37.12,2.12.18,4.29.24,6.47,0,1.87-.06,3.79-.12,5.71,0,1.01-.12,2.02-.06,3.03.06,1.57,0,3.08-.42,4.6-.06.25-.18.51-.24.76-.12.45-.36.81-.66,1.16-1.2,1.77-2.7,2.83-4.99,3.44-.36.15-.84.3-1.32.4-1.2.15-2.46.35-3.73.3-.6-.05-1.14-.05-1.74-.05ZM215.89,131.25c1.38-2.12,1.38-2.88,1.5-3.94.06-.86.06-5.51,0-8.49v-2.17c0-1.57,0-7.88.06-8.74.06-.86.12-3.33,0-4.29-.12-.96-1.68-4.65-8.35-4.9-3,.25-6.61,1.72-7.39,4.24-.72,2.32-.66,4.5-.6,5.96.06.76.06,3.38.06,6.01v7.88c-.06,1.57-.12,3.49,0,4.45.18,1.47.54,3.79,1.74,4.85,1.38,1.21,4.09,2.22,6.07,2.22,2.94,0,5.77-1.21,6.91-3.08ZM203.51,131.6c-.72-.66-1.2-2.12-1.5-4.45-.12-.86-.06-2.73,0-4.34v-7.88c0-2.63,0-5.3-.06-6.01-.06-1.46-.12-3.54.6-5.76.66-2.07,3.67-3.49,6.67-3.74,5.95.25,7.27,3.44,7.39,4.29.12.86.06,3.33,0,4.19-.06.86-.06,7.17-.06,8.74v2.22c.06,2.93.06,7.53,0,8.34-.12,1.16-.12,1.72-1.38,3.74-1.02,1.57-3.55,2.68-6.19,2.68-1.74,0-4.27-.91-5.47-2.02ZM209.1,131c1.08.2,2.1-.2,2.88-.76.48-.35.78-.81.84-1.41.12-1.06.24-2.17.3-3.23-.06-1.92.12-2.88,0-4.8.06-.2.06-.91.06-.91,0-.66-.12-2.27-.06-2.93.24-1.82-.18-4.14,0-7.48-.06-1.16,0-2.37,0-3.54-.06-.61-.18-1.11-.3-1.72-.3-1.16-1.32-1.82-2.7-2.12-1.62-.35-3.97.25-4.39,1.92-.06.25-.18.51-.3.76-.06.25-.06.51-.06.76.06,1.11.06,2.17.06,3.28-.06,2.98-.42,6.01-.18,8.99.18,1.47-.12,2.98,0,4.5,0,1.11.12,2.27.12,3.44,0,.3.06.61,0,.91-.18.66.06,1.26.18,1.92.36,1.57,1.44,2.22,2.88,2.42h.66ZM232.78,136.5c-1.98-.4-3.73-1.16-5.05-2.58l-.24-.3c-.54-1.36-1.32-2.63-1.32-4.09-.06-1.11-.24-2.17-.24-3.28,0-2.37.18-5.2-.06-7.17-.06-1.72.24-3.44,0-5.15-.06-1.01-.06-2.12,0-3.13.12-1.87.06-3.74.18-5.56,0-1.31.24-2.58.84-3.74.54-1.06,1.44-1.92,2.34-2.78.3-.25.6-.45.9-.76.54-.51,1.2-.76,1.92-1.06,2.4-.86,4.87-1.06,7.27-.86,1.98.2,3.91.66,5.65,1.52.06.05.18.05.24.15,1.14.91,2.34,1.77,3.06,3.03.54.91.72,1.87.9,2.88.42,2.12.12,4.24.18,6.31l.06,2.53c.06,2.02-.12,3.99-.12,5.96,0,.66-.06,1.31.06,1.97.12.4.12.81.06,1.21-.12.91,0,1.82,0,2.73-.06,1.26.12,2.58-.24,3.84-.06.1-.06.25-.06.35.12,1.36-.48,2.53-1.08,3.74-.36.91-1.14,1.72-1.92,2.48-.24.2-.54.3-.78.45l-.78.45c-1.38.91-3,1.36-4.69,1.31-1.02,0-1.98.15-3,.1-1.38-.05-2.82-.25-4.09-.56ZM244.43,131.25c1.38-2.12,1.38-2.88,1.5-3.94.06-.86.06-5.51,0-8.49v-2.17c0-1.57,0-7.88.06-8.74s.12-3.33,0-4.29c-.12-.96-1.68-4.65-8.35-4.9-3,.25-6.61,1.72-7.39,4.24-.72,2.32-.66,4.5-.6,5.96.06.76.06,3.38.06,6.01v7.88c-.06,1.57-.12,3.49,0,4.45.18,1.47.54,3.79,1.74,4.85,1.38,1.21,4.09,2.22,6.07,2.22,2.94,0,5.77-1.21,6.91-3.08ZM232.05,131.6c-.72-.66-1.2-2.12-1.5-4.45-.12-.86-.06-2.73,0-4.34v-7.88c0-2.63,0-5.3-.06-6.01-.06-1.46-.12-3.54.6-5.76.66-2.07,3.67-3.49,6.67-3.74,5.95.25,7.27,3.44,7.39,4.29s.06,3.33,0,4.19-.06,7.17-.06,8.74v2.22c.06,2.93.06,7.53,0,8.34-.12,1.16-.12,1.72-1.38,3.74-1.02,1.57-3.55,2.68-6.19,2.68-1.74,0-4.27-.91-5.47-2.02ZM239.27,130.49c.72-.2,1.26-.61,1.5-1.26.06-.3.18-.61.24-.91.18-.96.36-1.97.3-2.98,0-.86-.06-1.77,0-2.63,0-.1,0-.25-.06-.4-.06-.35-.06-.66,0-1.01.06-.25.06-.56.06-.81-.18-2.07.12-3.64-.06-5.71.06-.35.12-1.21.24-1.52-.24-.86,0-1.67-.12-2.53-.06-.81.18-1.67.06-2.48,0-.91-.06-1.77-.06-2.68,0-.3,0-.71-.06-1.01-.12-.76-.48-1.41-1.26-1.82-2.16-1.21-4.51-.4-5.47,1.21-.42.61-.6,1.31-.54,2.12.18,2.53-.12,5-.18,7.53,0,1.11.12,2.27.24,3.44.12,1.36-.06,2.63-.06,3.94v1.21c0,.76-.06,1.57,0,2.37,0,1.11.12,2.32.24,3.49,0,.4.24.86.42,1.21.36.66,1.02,1.11,1.8,1.31.9.2,1.86.2,2.76-.1Z"/>
  <path class="cls-6" d="M93.66,137.06c-.78.05-2.16-.25-2.88-.45-1.02-.25-1.98-.56-2.88-1.01-.72-.35-1.38-.76-1.86-1.26-1.26-1.46-2.4-3.03-2.52-4.95-.06-1.31-.18-2.63-.12-4.04-.12-1.11.12-2.37.06-3.59.18-1.57-.18-3.18-.06-4.75v-.91c-.3-2.02-.12-4.04-.06-6.11.06-1.01.12-2.02.12-3.03.06-1.62-.06-2.98.42-4.6.06-.3.36-.81.6-1.06.24-.25.36-.56.6-.81,1.56-2.02,3.73-3.44,6.55-4.09,1.32-.3,2.94-.4,3.91-.45.84.15,2.22-.05,3.19.35.42.15.9.25,1.38.35,2.16.66,3.73,1.72,5.05,3.03,1.08,1.11,1.38,2.42,1.56,3.89.06,1.57.12,3.18-.06,4.75,0,.2-.12.4-.06.56.3.76.18,1.57.12,2.37.12,2.12.18,4.29.24,6.47,0,1.87-.06,3.79-.12,5.71,0,1.01-.12,2.02-.06,3.03.06,1.57,0,3.08-.42,4.6-.06.25-.18.51-.24.76-.12.45-.36.81-.66,1.16-1.2,1.77-2.7,2.83-4.99,3.44-.36.15-.84.3-1.32.4-1.2.15-2.46.35-3.73.3-.6-.05-1.14-.05-1.74-.05ZM101.83,131.25c1.38-2.12,1.38-2.88,1.5-3.94.06-.86.06-5.51,0-8.49v-2.17c0-1.57,0-7.88.06-8.74.06-.86.12-3.33,0-4.29-.12-.96-1.68-4.65-8.35-4.9-3,.25-6.61,1.72-7.39,4.24-.72,2.32-.66,4.5-.6,5.96.06.76.06,3.38.06,6.01v7.88c-.06,1.57-.12,3.49,0,4.45.18,1.47.54,3.79,1.74,4.85,1.38,1.21,4.09,2.22,6.07,2.22,2.94,0,5.77-1.21,6.91-3.08ZM89.46,131.6c-.72-.66-1.2-2.12-1.5-4.45-.12-.86-.06-2.73,0-4.34v-7.88c0-2.63,0-5.3-.06-6.01-.06-1.46-.12-3.54.6-5.76.66-2.07,3.67-3.49,6.67-3.74,5.95.25,7.27,3.44,7.39,4.29s.06,3.33,0,4.19-.06,7.17-.06,8.74v2.22c.06,2.93.06,7.53,0,8.34-.12,1.16-.12,1.72-1.38,3.74-1.02,1.57-3.55,2.68-6.19,2.68-1.74,0-4.27-.91-5.47-2.02ZM95.04,131c1.08.2,2.1-.2,2.88-.76.48-.35.78-.81.84-1.41.12-1.06.24-2.17.3-3.23-.06-1.92.12-2.88,0-4.8.06-.2.06-.91.06-.91,0-.66-.12-2.27-.06-2.93.24-1.82-.18-4.14,0-7.48-.06-1.16,0-2.37,0-3.54-.06-.61-.18-1.11-.3-1.72-.3-1.16-1.32-1.82-2.7-2.12-1.62-.35-3.97.25-4.39,1.92-.06.25-.18.51-.3.76-.06.25-.06.51-.06.76.06,1.11.06,2.17.06,3.28-.06,2.98-.42,6.01-.18,8.99.18,1.47-.12,2.98,0,4.5,0,1.11.12,2.27.12,3.44,0,.3.06.61,0,.91-.18.66.06,1.26.18,1.92.36,1.57,1.44,2.22,2.88,2.42h.66ZM118.72,136.5c-1.98-.4-3.73-1.16-5.05-2.58l-.24-.3c-.54-1.36-1.32-2.63-1.32-4.09-.06-1.11-.24-2.17-.24-3.28,0-2.37.18-5.2-.06-7.17-.06-1.72.24-3.44,0-5.15-.06-1.01-.06-2.12,0-3.13.12-1.87.06-3.74.18-5.56,0-1.31.24-2.58.84-3.74.54-1.06,1.44-1.92,2.34-2.78.3-.25.6-.45.9-.76.54-.51,1.2-.76,1.92-1.06,2.4-.86,4.87-1.06,7.27-.86,1.98.2,3.91.66,5.65,1.52.06.05.18.05.24.15,1.14.91,2.34,1.77,3.06,3.03.54.91.72,1.87.9,2.88.42,2.12.12,4.24.18,6.31l.06,2.53c.06,2.02-.12,3.99-.12,5.96,0,.66-.06,1.31.06,1.97.12.4.12.81.06,1.21-.12.91,0,1.82,0,2.73-.06,1.26.12,2.58-.24,3.84-.06.1-.06.25-.06.35.12,1.36-.48,2.53-1.08,3.74-.36.91-1.14,1.72-1.92,2.48-.24.2-.54.3-.78.45l-.78.45c-1.38.91-3,1.36-4.69,1.31-1.02,0-1.98.15-3,.1-1.38-.05-2.82-.25-4.09-.56ZM130.38,131.25c1.38-2.12,1.38-2.88,1.5-3.94.06-.86.06-5.51,0-8.49v-2.17c0-1.57,0-7.88.06-8.74.06-.86.12-3.33,0-4.29-.12-.96-1.68-4.65-8.35-4.9-3,.25-6.61,1.72-7.39,4.24-.72,2.32-.66,4.5-.6,5.96.06.76.06,3.38.06,6.01v7.88c-.06,1.57-.12,3.49,0,4.45.18,1.47.54,3.79,1.74,4.85,1.38,1.21,4.09,2.22,6.07,2.22,2.94,0,5.77-1.21,6.91-3.08ZM118,131.6c-.72-.66-1.2-2.12-1.5-4.45-.12-.86-.06-2.73,0-4.34v-7.88c0-2.63,0-5.3-.06-6.01-.06-1.46-.12-3.54.6-5.76.66-2.07,3.67-3.49,6.67-3.74,5.95.25,7.27,3.44,7.39,4.29s.06,3.33,0,4.19-.06,7.17-.06,8.74v2.22c.06,2.93.06,7.53,0,8.34-.12,1.16-.12,1.72-1.38,3.74-1.02,1.57-3.55,2.68-6.19,2.68-1.74,0-4.27-.91-5.47-2.02ZM125.21,130.49c.72-.2,1.26-.61,1.5-1.26.06-.3.18-.61.24-.91.18-.96.36-1.97.3-2.98,0-.86-.06-1.77,0-2.63,0-.1,0-.25-.06-.4-.06-.35-.06-.66,0-1.01.06-.25.06-.56.06-.81-.18-2.07.12-3.64-.06-5.71.06-.35.12-1.21.24-1.52-.24-.86,0-1.67-.12-2.53-.06-.81.18-1.67.06-2.48,0-.91-.06-1.77-.06-2.68,0-.3,0-.71-.06-1.01-.12-.76-.48-1.41-1.26-1.82-2.16-1.21-4.51-.4-5.47,1.21-.42.61-.6,1.31-.54,2.12.18,2.53-.12,5-.18,7.53,0,1.11.12,2.27.24,3.44.12,1.36-.06,2.63-.06,3.94v1.21c0,.76-.06,1.57,0,2.37,0,1.11.12,2.32.24,3.49,0,.4.24.86.42,1.21.36.66,1.02,1.11,1.8,1.31.9.2,1.86.2,2.76-.1Z"/>
  <path class="cls-6" d="M150.69,137.06c-.78.05-2.16-.25-2.88-.45-1.02-.25-1.98-.56-2.88-1.01-.72-.35-1.38-.76-1.86-1.26-1.26-1.46-2.4-3.03-2.52-4.95-.06-1.31-.18-2.63-.12-4.04-.12-1.11.12-2.37.06-3.59.18-1.57-.18-3.18-.06-4.75v-.91c-.3-2.02-.12-4.04-.06-6.11.06-1.01.12-2.02.12-3.03.06-1.62-.06-2.98.42-4.6.06-.3.36-.81.6-1.06.24-.25.36-.56.6-.81,1.56-2.02,3.73-3.44,6.55-4.09,1.32-.3,2.94-.4,3.91-.45.84.15,2.22-.05,3.19.35.42.15.9.25,1.38.35,2.16.66,3.73,1.72,5.05,3.03,1.08,1.11,1.38,2.42,1.56,3.89.06,1.57.12,3.18-.06,4.75,0,.2-.12.4-.06.56.3.76.18,1.57.12,2.37.12,2.12.18,4.29.24,6.47,0,1.87-.06,3.79-.12,5.71,0,1.01-.12,2.02-.06,3.03.06,1.57,0,3.08-.42,4.6-.06.25-.18.51-.24.76-.12.45-.36.81-.66,1.16-1.2,1.77-2.7,2.83-4.99,3.44-.36.15-.84.3-1.32.4-1.2.15-2.46.35-3.73.3-.6-.05-1.14-.05-1.74-.05ZM158.86,131.25c1.38-2.12,1.38-2.88,1.5-3.94.06-.86.06-5.51,0-8.49v-2.17c0-1.57,0-7.88.06-8.74s.12-3.33,0-4.29c-.12-.96-1.68-4.65-8.35-4.9-3,.25-6.61,1.72-7.39,4.24-.72,2.32-.66,4.5-.6,5.96.06.76.06,3.38.06,6.01v7.88c-.06,1.57-.12,3.49,0,4.45.18,1.47.54,3.79,1.74,4.85,1.38,1.21,4.09,2.22,6.07,2.22,2.94,0,5.77-1.21,6.91-3.08ZM146.48,131.6c-.72-.66-1.2-2.12-1.5-4.45-.12-.86-.06-2.73,0-4.34v-7.88c0-2.63,0-5.3-.06-6.01-.06-1.46-.12-3.54.6-5.76.66-2.07,3.67-3.49,6.67-3.74,5.95.25,7.27,3.44,7.39,4.29s.06,3.33,0,4.19-.06,7.17-.06,8.74v2.22c.06,2.93.06,7.53,0,8.34-.12,1.16-.12,1.72-1.38,3.74-1.02,1.57-3.55,2.68-6.19,2.68-1.74,0-4.27-.91-5.47-2.02ZM152.07,131c1.08.2,2.1-.2,2.88-.76.48-.35.78-.81.84-1.41.12-1.06.24-2.17.3-3.23-.06-1.92.12-2.88,0-4.8.06-.2.06-.91.06-.91,0-.66-.12-2.27-.06-2.93.24-1.82-.18-4.14,0-7.48-.06-1.16,0-2.37,0-3.54-.06-.61-.18-1.11-.3-1.72-.3-1.16-1.32-1.82-2.7-2.12-1.62-.35-3.97.25-4.39,1.92-.06.25-.18.51-.3.76-.06.25-.06.51-.06.76.06,1.11.06,2.17.06,3.28-.06,2.98-.42,6.01-.18,8.99.18,1.47-.12,2.98,0,4.5,0,1.11.12,2.27.12,3.44,0,.3.06.61,0,.91-.18.66.06,1.26.18,1.92.36,1.57,1.44,2.22,2.88,2.42h.66ZM175.75,136.5c-1.98-.4-3.73-1.16-5.05-2.58l-.24-.3c-.54-1.36-1.32-2.63-1.32-4.09-.06-1.11-.24-2.17-.24-3.28,0-2.37.18-5.2-.06-7.17-.06-1.72.24-3.44,0-5.15-.06-1.01-.06-2.12,0-3.13.12-1.87.06-3.74.18-5.56,0-1.31.24-2.58.84-3.74.54-1.06,1.44-1.92,2.34-2.78.3-.25.6-.45.9-.76.54-.51,1.2-.76,1.92-1.06,2.4-.86,4.87-1.06,7.27-.86,1.98.2,3.91.66,5.65,1.52.06.05.18.05.24.15,1.14.91,2.34,1.77,3.06,3.03.54.91.72,1.87.9,2.88.42,2.12.12,4.24.18,6.31l.06,2.53c.06,2.02-.12,3.99-.12,5.96,0,.66-.06,1.31.06,1.97.12.4.12.81.06,1.21-.12.91,0,1.82,0,2.73-.06,1.26.12,2.58-.24,3.84-.06.1-.06.25-.06.35.12,1.36-.48,2.53-1.08,3.74-.36.91-1.14,1.72-1.92,2.48-.24.2-.54.3-.78.45l-.78.45c-1.38.91-3,1.36-4.69,1.31-1.02,0-1.98.15-3,.1-1.38-.05-2.82-.25-4.09-.56ZM187.41,131.25c1.38-2.12,1.38-2.88,1.5-3.94.06-.86.06-5.51,0-8.49v-2.17c0-1.57,0-7.88.06-8.74.06-.86.12-3.33,0-4.29-.12-.96-1.68-4.65-8.35-4.9-3,.25-6.61,1.72-7.39,4.24-.72,2.32-.66,4.5-.6,5.96.06.76.06,3.38.06,6.01v7.88c-.06,1.57-.12,3.49,0,4.45.18,1.47.54,3.79,1.74,4.85,1.38,1.21,4.09,2.22,6.07,2.22,2.94,0,5.77-1.21,6.91-3.08ZM175.03,131.6c-.72-.66-1.2-2.12-1.5-4.45-.12-.86-.06-2.73,0-4.34v-7.88c0-2.63,0-5.3-.06-6.01-.06-1.46-.12-3.54.6-5.76.66-2.07,3.67-3.49,6.67-3.74,5.95.25,7.27,3.44,7.39,4.29.12.86.06,3.33,0,4.19-.06.86-.06,7.17-.06,8.74v2.22c.06,2.93.06,7.53,0,8.34-.12,1.16-.12,1.72-1.38,3.74-1.02,1.57-3.55,2.68-6.19,2.68-1.74,0-4.27-.91-5.47-2.02ZM182.24,130.49c.72-.2,1.26-.61,1.5-1.26.06-.3.18-.61.24-.91.18-.96.36-1.97.3-2.98,0-.86-.06-1.77,0-2.63,0-.1,0-.25-.06-.4-.06-.35-.06-.66,0-1.01.06-.25.06-.56.06-.81-.18-2.07.12-3.64-.06-5.71.06-.35.12-1.21.24-1.52-.24-.86,0-1.67-.12-2.53-.06-.81.18-1.67.06-2.48,0-.91-.06-1.77-.06-2.68,0-.3,0-.71-.06-1.01-.12-.76-.48-1.41-1.26-1.82-2.16-1.21-4.51-.4-5.47,1.21-.42.61-.6,1.31-.54,2.12.18,2.53-.12,5-.18,7.53,0,1.11.12,2.27.24,3.44.12,1.36-.06,2.63-.06,3.94v1.21c0,.76-.06,1.57,0,2.37,0,1.11.12,2.32.24,3.49,0,.4.24.86.42,1.21.36.66,1.02,1.11,1.8,1.31.9.2,1.86.2,2.76-.1Z"/>
  <path class="cls-6" d="M261.26,136.5c-1.98-.4-3.73-1.16-5.05-2.58l-.24-.3c-.54-1.36-1.32-2.63-1.32-4.09-.06-1.11-.24-2.17-.24-3.28,0-2.37.18-5.2-.06-7.17-.06-1.72.24-3.44,0-5.15-.06-1.01-.06-2.12,0-3.13.12-1.87.06-3.74.18-5.56,0-1.31.24-2.58.84-3.74.54-1.06,1.44-1.92,2.34-2.78.3-.25.6-.45.9-.76.54-.51,1.2-.76,1.92-1.06,2.4-.86,4.87-1.06,7.27-.86,1.98.2,3.91.66,5.65,1.52.06.05.18.05.24.15,1.14.91,2.34,1.77,3.06,3.03.54.91.72,1.87.9,2.88.42,2.12.12,4.24.18,6.31l.06,2.53c.06,2.02-.12,3.99-.12,5.96,0,.66-.06,1.31.06,1.97.12.4.12.81.06,1.21-.12.91,0,1.82,0,2.73-.06,1.26.12,2.58-.24,3.84-.06.1-.06.25-.06.35.12,1.36-.48,2.53-1.08,3.74-.36.91-1.14,1.72-1.92,2.48-.24.2-.54.3-.78.45l-.78.45c-1.38.91-3,1.36-4.69,1.31-1.02,0-1.98.15-3,.1-1.38-.05-2.82-.25-4.09-.56ZM272.92,131.25c1.38-2.12,1.38-2.88,1.5-3.94.06-.86.06-5.51,0-8.49v-2.17c0-1.57,0-7.88.06-8.74.06-.86.12-3.33,0-4.29-.12-.96-1.68-4.65-8.35-4.9-3,.25-6.61,1.72-7.39,4.24-.72,2.32-.66,4.5-.6,5.96.06.76.06,3.38.06,6.01v7.88c-.06,1.57-.12,3.49,0,4.45.18,1.47.54,3.79,1.74,4.85,1.38,1.21,4.09,2.22,6.07,2.22,2.94,0,5.77-1.21,6.91-3.08ZM260.54,131.6c-.72-.66-1.2-2.12-1.5-4.45-.12-.86-.06-2.73,0-4.34v-7.88c0-2.63,0-5.3-.06-6.01-.06-1.46-.12-3.54.6-5.76.66-2.07,3.67-3.49,6.67-3.74,5.95.25,7.27,3.44,7.39,4.29.12.86.06,3.33,0,4.19-.06.86-.06,7.17-.06,8.74v2.22c.06,2.93.06,7.53,0,8.34-.12,1.16-.12,1.72-1.38,3.74-1.02,1.57-3.55,2.68-6.19,2.68-1.74,0-4.27-.91-5.47-2.02ZM267.75,130.49c.72-.2,1.26-.61,1.5-1.26.06-.3.18-.61.24-.91.18-.96.36-1.97.3-2.98,0-.86-.06-1.77,0-2.63,0-.1,0-.25-.06-.4-.06-.35-.06-.66,0-1.01.06-.25.06-.56.06-.81-.18-2.07.12-3.64-.06-5.71.06-.35.12-1.21.24-1.52-.24-.86,0-1.67-.12-2.53-.06-.81.18-1.67.06-2.48,0-.91-.06-1.77-.06-2.68,0-.3,0-.71-.06-1.01-.12-.76-.48-1.41-1.26-1.82-2.16-1.21-4.51-.4-5.47,1.21-.42.61-.6,1.31-.54,2.12.18,2.53-.12,5-.18,7.53,0,1.11.12,2.27.24,3.44.12,1.36-.06,2.63-.06,3.94v1.21c0,.76-.06,1.57,0,2.37,0,1.11.12,2.32.24,3.49,0,.4.24.86.42,1.21.36.66,1.02,1.11,1.8,1.31.9.2,1.86.2,2.76-.1Z"/>
  <ellipse class="cls-1" cx="205.75" cy="57.99" rx="8.72" ry="8.33"/>
  <ellipse class="cls-1" cx="94.02" cy="57.99" rx="8.72" ry="8.33"/>
  <path class="cls-5" d="M268.25,178.28l-29.57-8.56c-1.07-.31-1.73-1.32-1.55-2.38l.92-5.49-5.06-4.22c-2.13-1.77-5.08-2.36-7.77-1.53l-2.71.83,6.26,5.68-.78,1.62c-1.14,2.36-3.16,4.23-5.67,5.24-10.09,4.06-21.96,3.89-34.02,3.25l16.94,10.42c1.46.9,3.24,1.22,4.95.89l14.62-2.82c.45-.09.91-.09,1.36-.02l38.42,6.09,3.69-8.99Z"/>
  <path class="cls-7" d="M306.77,215.05l-75.47-10.29c14.02-14.83,23.46-29.86,24.81-45.25l39.5,14.99,11.16,40.56Z"/>
</svg>